<?xml version="1.0" encoding="utf-8"?>
<!-- Generator: Adobe Illustrator 22.0.1, SVG Export Plug-In . SVG Version: 6.00 Build 0)  -->
<svg version="1.1" id="Layer_1" xmlns="http://www.w3.org/2000/svg" xmlns:xlink="http://www.w3.org/1999/xlink" x="0px" y="0px"
	 viewBox="0 0 1190.6 1401.7" style="enable-background:new 0 0 1190.6 1401.7;" xml:space="preserve">
<style type="text/css">
	.st0{fill:#EAE4E4;}
	.st1{fill:#222221;}
	.st2{display:none;fill:#5773C4;stroke:#222221;stroke-width:1.000000e-02;stroke-miterlimit:10;}
	.st3{fill:none;stroke:#222221;stroke-width:1.000000e-02;stroke-miterlimit:10;}
	.st4{fill:#82B678;}
	.st5{fill:#F9C18F;}
	.st6{fill:#5A81CE;}
	.st7{fill:#DC648D;}
	.st8{fill:#FFFFFF;}
	.st9{fill:url(#SVGID_1_);}
	.st10{fill:url(#SVGID_2_);}
	.st11{fill:url(#SVGID_3_);}
	.st12{fill:url(#SVGID_4_);}
	.st13{fill:url(#SVGID_5_);}
	.st14{fill:url(#SVGID_6_);}
	.st15{fill:url(#SVGID_7_);}
	.st16{fill:url(#SVGID_8_);}
	.st17{fill:url(#SVGID_9_);}
	.st18{fill:url(#SVGID_10_);}
	.st19{fill:url(#SVGID_11_);}
	.st20{fill:url(#SVGID_12_);}
	.st21{opacity:0.4;fill:#FFFFFF;}
	.st22{fill:url(#SVGID_13_);}
	.st23{fill:url(#SVGID_14_);}
	.st24{fill:url(#SVGID_15_);}
	.st25{fill:url(#SVGID_16_);}
	.st26{fill:url(#SVGID_17_);}
	.st27{fill:url(#SVGID_18_);}
	.st28{fill:url(#SVGID_19_);}
	.st29{fill:url(#SVGID_20_);}
	.st30{filter:url(#Adobe_OpacityMaskFilter);}
	.st31{opacity:0.75;mask:url(#SVGID_21_);}
	.st32{fill:url(#SVGID_22_);}
	.st33{fill:url(#SVGID_23_);}
	.st34{fill:url(#SVGID_24_);}
	.st35{fill:url(#SVGID_25_);}
	.st36{filter:url(#Adobe_OpacityMaskFilter_1_);}
	.st37{opacity:0.75;mask:url(#SVGID_26_);}
	.st38{fill:url(#SVGID_27_);}
	.st39{fill:url(#SVGID_28_);}
	.st40{fill:url(#SVGID_29_);}
	.st41{fill:url(#SVGID_30_);}
	.st42{fill:url(#SVGID_31_);}
	.st43{fill:url(#SVGID_32_);}
	.st44{fill:url(#SVGID_33_);}
	.st45{fill:url(#SVGID_34_);}
	.st46{fill:url(#SVGID_35_);}
	.st47{fill:url(#SVGID_36_);}
	.st48{fill:url(#SVGID_37_);}
	.st49{fill:url(#SVGID_38_);}
	.st50{fill:url(#SVGID_39_);}
	.st51{fill:url(#SVGID_40_);}
	.st52{fill:url(#SVGID_41_);}
	.st53{fill:url(#SVGID_42_);}
	.st54{filter:url(#Adobe_OpacityMaskFilter_2_);}
	.st55{opacity:0.75;mask:url(#SVGID_43_);}
	.st56{fill:url(#SVGID_44_);}
	.st57{fill:url(#SVGID_45_);}
	.st58{fill:url(#SVGID_46_);}
	.st59{fill:url(#SVGID_47_);}
	.st60{filter:url(#Adobe_OpacityMaskFilter_3_);}
	.st61{opacity:0.75;mask:url(#SVGID_48_);}
	.st62{fill:url(#SVGID_49_);}
	.st63{fill:url(#SVGID_50_);}
	.st64{fill:url(#SVGID_51_);}
	.st65{fill:url(#SVGID_52_);}
	.st66{fill:url(#SVGID_53_);}
	.st67{fill:url(#SVGID_54_);}
	.st68{fill:url(#SVGID_55_);}
	.st69{fill:url(#SVGID_56_);}
	.st70{fill:url(#SVGID_57_);}
	.st71{fill:url(#SVGID_58_);}
	.st72{fill:url(#SVGID_59_);}
	.st73{fill:url(#SVGID_60_);}
	.st74{fill:#ECB4AE;}
	.st75{display:none;fill:none;stroke:#000000;stroke-miterlimit:10;}
	.st76{fill:none;}
	.st77{display:none;fill:#EAE4E4;}
	.st78{font-family:'Montserrat-Bold';}
	.st79{font-size:60px;}
	.st80{fill:url(#SVGID_61_);}
	.st81{fill:url(#SVGID_62_);}
	.st82{fill:url(#SVGID_63_);}
	.st83{fill:url(#SVGID_64_);}
	.st84{filter:url(#Adobe_OpacityMaskFilter_4_);}
	.st85{opacity:0.75;mask:url(#SVGID_65_);}
</style>
<path class="st0" d="M133.3,261.4h-96c-6.6,0-12-5.4-12-12v-96c0-6.6,5.4-12,12-12h96c6.6,0,12,5.4,12,12v96
	C145.3,256,139.9,261.4,133.3,261.4z"/>
<path class="st0" d="M264.3,261.4h-96c-6.6,0-12-5.4-12-12v-96c0-6.6,5.4-12,12-12h96c6.6,0,12,5.4,12,12v96
	C276.3,256,270.9,261.4,264.3,261.4z"/>
<g>
	<polygon class="st1" points="135.3,77.2 85.3,77.2 85.3,27.2 85.3,27.2 85.3,27.2 85.3,77.2 35.3,77.2 35.3,77.2 35.3,77.2
		85.3,77.2 85.3,127.2 85.3,127.2 85.3,127.2 85.3,77.2 135.3,77.2 135.3,77.2 	"/>
	<path class="st1" d="M131.4,57.8c-2.5-6-6.1-11.3-10.7-15.9s-9.9-8.2-15.9-10.7c-6.2-2.6-12.7-3.9-19.5-3.9S72,28.5,65.9,31.1
		c-6,2.5-11.3,6.1-15.9,10.7s-8.2,9.9-10.7,15.9c-2.6,6.2-3.9,12.7-3.9,19.5s1.3,13.3,3.9,19.5c2.5,6,6.1,11.3,10.7,15.9
		s9.9,8.2,15.9,10.7c6.2,2.6,12.7,3.9,19.5,3.9s13.3-1.3,19.5-3.9c6-2.5,11.3-6.1,15.9-10.7s8.2-9.9,10.7-15.9
		c2.6-6.2,3.9-12.7,3.9-19.5S134,63.9,131.4,57.8z M135.3,77.2c0,6.7-1.3,13.3-3.9,19.5c-2.5,6-6.1,11.3-10.7,15.9
		c-4.6,4.6-9.9,8.2-15.9,10.7c-6.2,2.6-12.7,3.9-19.5,3.9v0h0v0c-6.7,0-13.3-1.3-19.5-3.9c-6-2.5-11.3-6.1-15.9-10.7
		c-4.6-4.6-8.2-9.9-10.7-15.9c-2.6-6.2-3.9-12.7-3.9-19.5h0v0h0c0-6.7,1.3-13.3,3.9-19.5c2.5-6,6.1-11.3,10.7-15.9
		c4.6-4.6,9.9-8.2,15.9-10.7c6.2-2.6,12.7-3.9,19.5-3.9v0h0v0c6.7,0,13.3,1.3,19.5,3.9c6,2.5,11.3,6.1,15.9,10.7
		c4.6,4.6,8.2,9.9,10.7,15.9C134,63.9,135.3,70.5,135.3,77.2L135.3,77.2L135.3,77.2L135.3,77.2z"/>
</g>
<g>
	<polygon class="st1" points="135.3,201.4 85.3,201.4 85.3,151.4 85.3,151.4 85.3,151.4 85.3,201.4 35.3,201.4 35.3,201.4
		35.3,201.4 85.3,201.4 85.3,251.4 85.3,251.4 85.3,251.4 85.3,201.4 135.3,201.4 135.3,201.4 	"/>
	<path class="st1" d="M131.4,182c-2.5-6-6.1-11.3-10.7-15.9s-9.9-8.2-15.9-10.7c-6.2-2.6-12.7-3.9-19.5-3.9s-13.3,1.3-19.5,3.9
		c-6,2.5-11.3,6.1-15.9,10.7S41.8,176,39.3,182c-2.6,6.2-3.9,12.7-3.9,19.5s1.3,13.3,3.9,19.5c2.5,6,6.1,11.3,10.7,15.9
		s9.9,8.2,15.9,10.7c6.2,2.6,12.7,3.9,19.5,3.9s13.3-1.3,19.5-3.9c6-2.5,11.3-6.1,15.9-10.7s8.2-9.9,10.7-15.9
		c2.6-6.2,3.9-12.7,3.9-19.5S134,188.1,131.4,182z M135.3,201.4c0,6.7-1.3,13.3-3.9,19.5c-2.5,6-6.1,11.3-10.7,15.9
		c-4.6,4.6-9.9,8.2-15.9,10.7c-6.2,2.6-12.7,3.9-19.5,3.9v0h0v0c-6.7,0-13.3-1.3-19.5-3.9c-6-2.5-11.3-6.1-15.9-10.7
		c-4.6-4.6-8.2-9.9-10.7-15.9c-2.6-6.2-3.9-12.7-3.9-19.5h0v0h0c0-6.7,1.3-13.3,3.9-19.5c2.5-6,6.1-11.3,10.7-15.9
		c4.6-4.6,9.9-8.2,15.9-10.7c6.2-2.6,12.7-3.9,19.5-3.9v0h0v0c6.7,0,13.3,1.3,19.5,3.9c6,2.5,11.3,6.1,15.9,10.7
		c4.6,4.6,8.2,9.9,10.7,15.9C134,188.1,135.3,194.7,135.3,201.4L135.3,201.4L135.3,201.4L135.3,201.4z"/>
</g>
<circle class="st2" cx="216.3" cy="77.2" r="50"/>
<g>
	<g>
		<path class="st3" d="M217.6,27.3c-0.4,0-0.9,0-1.3,0s-0.9,0-1.3,0c-13.2,0.7-23.7,11.6-23.7,25c0,13.8,11.2,25,25,25
			s25,11.2,25,25c0,13.4-10.5,24.3-23.7,25c27-0.7,48.7-22.8,48.7-50C266.3,50,244.6,27.9,217.6,27.3z"/>
		<path class="st3" d="M216.3,77.2c-13.8,0-25-11.2-25-25c0-13.4,10.5-24.3,23.7-25c-27,0.7-48.7,22.8-48.7,50
			c0,27.2,21.7,49.3,48.7,50c0.4,0,0.9,0,1.3,0s0.9,0,1.3,0c13.2-0.7,23.7-11.6,23.7-25C241.3,88.4,230.1,77.2,216.3,77.2z"/>
	</g>
	<g>
		<path class="st3" d="M266.3,78.5c0-0.4,0-0.9,0-1.3s0-0.9,0-1.3c-0.7-13.2-11.6-23.7-25-23.7c-13.8,0-25,11.2-25,25
			s-11.2,25-25,25c-13.4,0-24.3-10.5-25-23.7c0.7,27,22.8,48.7,50,48.7C243.5,127.2,265.6,105.5,266.3,78.5z"/>
		<path class="st3" d="M216.3,77.2c0-13.8,11.2-25,25-25c13.4,0,24.3,10.5,25,23.7c-0.7-27-22.8-48.7-50-48.7
			c-27.2,0-49.3,21.7-50,48.7c0,0.4,0,0.9,0,1.3s0,0.9,0,1.3c0.7,13.2,11.6,23.7,25,23.7C205.1,102.2,216.3,91,216.3,77.2z"/>
	</g>
</g>
<g>
	<path class="st4" d="M265.6,192.7c0.4,2.5,0.7,4.9,0.7,7.4c-0.5-10.3-7.6-19.4-17.4-22.5c-9.9-3.2-21,0.3-27.4,8.5
		c-3.1,4-4.9,8.9-5.2,13.9c0,0.3-0.1,0.7,0,1c0.1,0.5,0,0.4,0.6,0.4c0.6,0,1.3,0.1,1.9,0.1c1.3,0.1,2.6,0.4,3.9,0.7
		c2.4,0.6,4.7,1.6,6.8,2.9c8.8,5.5,13.4,16.1,11.3,26.2c-2,10-10.3,18-20.4,19.7c-1.3,0.2-2.7,0.3-4.1,0.3c11.4,0,22.5-4,31.4-11.1
		c8.6-6.9,14.8-16.7,17.3-27.4C266.5,206.3,266.7,199.4,265.6,192.7z"/>
	<path class="st5" d="M263.8,185.6c-5.4-16.2-19.2-29-35.9-32.9c-7.5-1.8-15.7-2.2-22.8,1.3c-5.9,3-10.4,8.2-12.5,14.5
		c-4.4,13.1,3.2,27.8,16.4,31.8c1.6,0.5,3.2,0.8,4.8,1c0.4,0,2.2,0.4,2.5,0.1c0.1-0.1,0-1.2,0-1.4c0-0.5,0.1-0.9,0.1-1.4
		c0.4-3.3,1.4-6.5,3-9.4c3.2-5.7,8.6-10,14.8-11.8c13.4-3.9,27.8,4.3,31.3,17.8c0.4,1.6,0.7,3.3,0.7,4.9
		C266.2,195.2,265.3,190.3,263.8,185.6z"/>
	<path class="st6" d="M216.3,201.4c0,10.2-6.4,19.6-15.9,23.3c-9.7,3.8-21,1-27.8-6.8c-3.7-4.2-5.9-9.6-6.2-15.2
		c0.3,11.8,4.9,23.3,12.8,32.1c7.6,8.4,18,14.1,29.2,15.9c5.3,0.9,10.8,1.1,16-0.7c4.2-1.4,8.1-4,11-7.4c6-7,7.6-16.9,4.3-25.4
		c-3.3-8.3-11-14.4-19.8-15.6C218.6,201.5,217.5,201.4,216.3,201.4z"/>
	<path class="st7" d="M191.3,176.4c0-10.2,6.4-19.5,15.8-23.3c2.5-1,5.2-1.6,7.9-1.7c-15.2,0.4-29.6,7.9-38.8,20.1
		c-4.4,5.8-7.4,12.6-8.9,19.8c-1.4,6.7-1.7,13.8,1.1,20.2c4.8,10.9,16.9,17,28.5,14.3c5.5-1.3,10.6-4.5,14.1-8.9
		c1.7-2.2,3.1-4.7,4-7.4c0.5-1.4,0.8-2.8,1-4.2c0.1-0.7,0.2-1.5,0.2-2.2c0-0.4,0-0.7,0-1.1c0-0.6,0-0.6-0.6-0.6
		c-11.7-0.3-22-9-24.1-20.6C191.5,179.4,191.3,177.9,191.3,176.4z"/>
</g>
<circle class="st8" cx="216.3" cy="176.5" r="3"/>
<circle class="st8" cx="241.3" cy="204.4" r="3"/>
<circle class="st8" cx="216.3" cy="226.4" r="3"/>
<circle class="st8" cx="191.4" cy="201.4" r="3"/>
<path class="st0" d="M264.3,395.6h-96c-6.6,0-12-5.4-12-12v-96c0-6.6,5.4-12,12-12h96c6.6,0,12,5.4,12,12v96
	C276.3,390.2,270.9,395.6,264.3,395.6z"/>
<g>
	<linearGradient id="SVGID_1_" gradientUnits="userSpaceOnUse" x1="241.3159" y1="310.6676" x2="241.3159" y2="385.6471">
		<stop  offset="0" style="stop-color:#82B678"/>
		<stop  offset="0.2438" style="stop-color:#7DB273"/>
		<stop  offset="0.5431" style="stop-color:#6FA764"/>
		<stop  offset="0.8702" style="stop-color:#58954B"/>
		<stop  offset="1" style="stop-color:#4D8C3F"/>
	</linearGradient>
	<path class="st9" d="M265.6,326.9c0.4,2.5,0.7,4.9,0.7,7.4c-0.5-10.3-7.6-19.4-17.4-22.5c-9.9-3.2-21,0.3-27.4,8.5
		c-3.1,4-4.9,8.9-5.2,13.9c0,0.3-0.1,0.7,0,1c0.1,0.5,0,0.4,0.6,0.4c0.6,0,1.3,0.1,1.9,0.1c1.3,0.1,2.6,0.4,3.9,0.7
		c2.4,0.6,4.7,1.6,6.8,2.9c8.8,5.5,13.4,16.1,11.3,26.2c-2,10-10.3,18-20.4,19.7c-1.3,0.2-2.7,0.3-4.1,0.3c11.4,0,22.5-4,31.4-11.1
		c8.6-6.9,14.8-16.7,17.3-27.4C266.5,340.5,266.7,333.6,265.6,326.9z"/>
	<linearGradient id="SVGID_2_" gradientUnits="userSpaceOnUse" x1="191.3549" y1="310.6978" x2="266.2945" y2="310.6978">
		<stop  offset="0" style="stop-color:#F9C18F"/>
		<stop  offset="0.1603" style="stop-color:#F8BF8A"/>
		<stop  offset="0.3571" style="stop-color:#F4B97B"/>
		<stop  offset="0.573" style="stop-color:#EEAE62"/>
		<stop  offset="0.801" style="stop-color:#E5A03F"/>
		<stop  offset="1" style="stop-color:#DC911B"/>
	</linearGradient>
	<path class="st10" d="M263.8,319.9c-5.4-16.2-19.2-29-35.9-32.9c-7.5-1.8-15.7-2.2-22.8,1.3c-5.9,3-10.4,8.2-12.5,14.5
		c-4.4,13.1,3.2,27.8,16.4,31.8c1.6,0.5,3.2,0.8,4.8,1c0.4,0,2.2,0.4,2.5,0.1c0.1-0.1,0-1.2,0-1.4c0-0.5,0.1-0.9,0.1-1.4
		c0.4-3.3,1.4-6.5,3-9.4c3.2-5.7,8.6-10,14.8-11.8c13.4-3.9,27.8,4.3,31.3,17.8c0.4,1.6,0.7,3.3,0.7,4.9
		C266.2,329.4,265.3,324.5,263.8,319.9z"/>
	<linearGradient id="SVGID_3_" gradientUnits="userSpaceOnUse" x1="241.3043" y1="360.6485" x2="166.3596" y2="360.6485">
		<stop  offset="0" style="stop-color:#5A81CE"/>
		<stop  offset="0.3876" style="stop-color:#567EC9"/>
		<stop  offset="0.8626" style="stop-color:#4A74BA"/>
		<stop  offset="1" style="stop-color:#4570B4"/>
	</linearGradient>
	<path class="st11" d="M216.3,335.6c0,10.2-6.4,19.6-15.9,23.3c-9.7,3.8-21,1-27.8-6.8c-3.7-4.2-5.9-9.6-6.2-15.2
		c0.3,11.8,4.9,23.3,12.8,32.1c7.6,8.4,18,14.1,29.2,15.9c5.3,0.9,10.8,1.1,16-0.7c4.2-1.4,8.1-4,11-7.4c6-7,7.6-16.9,4.3-25.4
		c-3.3-8.3-11-14.4-19.8-15.6C218.6,335.7,217.5,335.6,216.3,335.6z"/>
	<linearGradient id="SVGID_4_" gradientUnits="userSpaceOnUse" x1="191.3232" y1="360.6324" x2="191.3232" y2="285.6797">
		<stop  offset="0" style="stop-color:#DC648D"/>
		<stop  offset="0.2256" style="stop-color:#DA5F8B"/>
		<stop  offset="0.5026" style="stop-color:#D55084"/>
		<stop  offset="0.8052" style="stop-color:#CD3779"/>
		<stop  offset="1" style="stop-color:#C62370"/>
	</linearGradient>
	<path class="st12" d="M191.3,310.6c0-10.2,6.4-19.5,15.8-23.3c2.5-1,5.2-1.6,7.9-1.7c-15.2,0.4-29.6,7.9-38.8,20.1
		c-4.4,5.8-7.4,12.6-8.9,19.8c-1.4,6.7-1.7,13.8,1.1,20.2c4.8,10.9,16.9,17,28.5,14.3c5.5-1.3,10.6-4.5,14.1-8.9
		c1.7-2.2,3.1-4.7,4-7.4c0.5-1.4,0.8-2.8,1-4.2c0.1-0.7,0.2-1.5,0.2-2.2c0-0.4,0-0.7,0-1.1c0-0.6,0-0.6-0.6-0.6
		c-11.7-0.3-22-9-24.1-20.6C191.5,313.6,191.3,312.1,191.3,310.6z"/>
</g>
<circle class="st8" cx="216.3" cy="313.7" r="3"/>
<circle class="st8" cx="241.3" cy="338.6" r="3"/>
<circle class="st8" cx="216.3" cy="360.6" r="3"/>
<circle class="st8" cx="191.4" cy="335.6" r="3"/>
<path class="st0" d="M264.3,529.9h-96c-6.6,0-12-5.4-12-12v-96c0-6.6,5.4-12,12-12h96c6.6,0,12,5.4,12,12v96
	C276.3,524.5,270.9,529.9,264.3,529.9z"/>
<g>
	<linearGradient id="SVGID_5_" gradientUnits="userSpaceOnUse" x1="241.3159" y1="519.8616" x2="241.3159" y2="444.882">
		<stop  offset="0" style="stop-color:#82B678"/>
		<stop  offset="0.2438" style="stop-color:#7DB273"/>
		<stop  offset="0.5431" style="stop-color:#6FA764"/>
		<stop  offset="0.8702" style="stop-color:#58954B"/>
		<stop  offset="1" style="stop-color:#4D8C3F"/>
	</linearGradient>
	<path class="st13" d="M265.6,461.2c0.4,2.5,0.7,4.9,0.7,7.4c-0.5-10.3-7.6-19.4-17.4-22.5c-9.9-3.2-21,0.3-27.4,8.5
		c-3.1,4-4.9,8.9-5.2,13.9c0,0.3-0.1,0.7,0,1c0.1,0.5,0,0.4,0.6,0.4c0.6,0,1.3,0.1,1.9,0.1c1.3,0.1,2.6,0.4,3.9,0.7
		c2.4,0.6,4.7,1.6,6.8,2.9c8.8,5.5,13.4,16.1,11.3,26.2c-2,10-10.3,18-20.4,19.7c-1.3,0.2-2.7,0.3-4.1,0.3c11.4,0,22.5-4,31.4-11.1
		c8.6-6.9,14.8-16.7,17.3-27.4C266.5,474.7,266.7,467.9,265.6,461.2z"/>
	<linearGradient id="SVGID_6_" gradientUnits="userSpaceOnUse" x1="266.2945" y1="444.9123" x2="191.3549" y2="444.9123">
		<stop  offset="0" style="stop-color:#F9C18F"/>
		<stop  offset="0.1603" style="stop-color:#F8BF8A"/>
		<stop  offset="0.3571" style="stop-color:#F4B97B"/>
		<stop  offset="0.573" style="stop-color:#EEAE62"/>
		<stop  offset="0.801" style="stop-color:#E5A03F"/>
		<stop  offset="1" style="stop-color:#DC911B"/>
	</linearGradient>
	<path class="st14" d="M263.8,454.1c-5.4-16.2-19.2-29-35.9-32.9c-7.5-1.8-15.7-2.2-22.8,1.3c-5.9,3-10.4,8.2-12.5,14.5
		c-4.4,13.1,3.2,27.8,16.4,31.8c1.6,0.5,3.2,0.8,4.8,1c0.4,0,2.2,0.4,2.5,0.1c0.1-0.1,0-1.2,0-1.4c0-0.5,0.1-0.9,0.1-1.4
		c0.4-3.3,1.4-6.5,3-9.4c3.2-5.7,8.6-10,14.8-11.8c13.4-3.9,27.8,4.3,31.3,17.8c0.4,1.6,0.7,3.3,0.7,4.9
		C266.2,463.6,265.3,458.7,263.8,454.1z"/>
	<linearGradient id="SVGID_7_" gradientUnits="userSpaceOnUse" x1="166.3596" y1="494.8629" x2="241.3043" y2="494.8629">
		<stop  offset="0" style="stop-color:#5A81CE"/>
		<stop  offset="0.3876" style="stop-color:#567EC9"/>
		<stop  offset="0.8626" style="stop-color:#4A74BA"/>
		<stop  offset="1" style="stop-color:#4570B4"/>
	</linearGradient>
	<path class="st15" d="M216.3,469.9c0,10.2-6.4,19.6-15.9,23.3c-9.7,3.8-21,1-27.8-6.8c-3.7-4.2-5.9-9.6-6.2-15.2
		c0.3,11.8,4.9,23.3,12.8,32.1c7.6,8.4,18,14.1,29.2,15.9c5.3,0.9,10.8,1.1,16-0.7c4.2-1.4,8.1-4,11-7.4c6-7,7.6-16.9,4.3-25.4
		c-3.3-8.3-11-14.4-19.8-15.6C218.6,469.9,217.5,469.9,216.3,469.9z"/>
	<linearGradient id="SVGID_8_" gradientUnits="userSpaceOnUse" x1="191.3232" y1="419.8941" x2="191.3232" y2="494.8469">
		<stop  offset="0" style="stop-color:#DC648D"/>
		<stop  offset="0.2256" style="stop-color:#DA5F8B"/>
		<stop  offset="0.5026" style="stop-color:#D55084"/>
		<stop  offset="0.8052" style="stop-color:#CD3779"/>
		<stop  offset="1" style="stop-color:#C62370"/>
	</linearGradient>
	<path class="st16" d="M191.3,444.9c0-10.2,6.4-19.5,15.8-23.3c2.5-1,5.2-1.6,7.9-1.7c-15.2,0.4-29.6,7.9-38.8,20.1
		c-4.4,5.8-7.4,12.6-8.9,19.8c-1.4,6.7-1.7,13.8,1.1,20.2c4.8,10.9,16.9,17,28.5,14.3c5.5-1.3,10.6-4.5,14.1-8.9
		c1.7-2.2,3.1-4.7,4-7.4c0.5-1.4,0.8-2.8,1-4.2c0.1-0.7,0.2-1.5,0.2-2.2c0-0.4,0-0.7,0-1.1c0-0.6,0-0.6-0.6-0.6
		c-11.7-0.3-22-9-24.1-20.6C191.5,447.8,191.3,446.3,191.3,444.9z"/>
</g>
<circle class="st8" cx="216.3" cy="444.9" r="3"/>
<circle class="st8" cx="241.3" cy="472.9" r="3"/>
<circle class="st8" cx="216.3" cy="494.8" r="3"/>
<circle class="st8" cx="191.4" cy="469.9" r="3"/>
<path class="st0" d="M264.3,664.1h-96c-6.6,0-12-5.4-12-12v-96c0-6.6,5.4-12,12-12h96c6.6,0,12,5.4,12,12v96
	C276.3,658.7,270.9,664.1,264.3,664.1z"/>
<g>
	<linearGradient id="SVGID_9_" gradientUnits="userSpaceOnUse" x1="241.3159" y1="579.0965" x2="241.3159" y2="654.076">
		<stop  offset="0" style="stop-color:#82B678"/>
		<stop  offset="0.2438" style="stop-color:#7DB273"/>
		<stop  offset="0.5431" style="stop-color:#6FA764"/>
		<stop  offset="0.8702" style="stop-color:#58954B"/>
		<stop  offset="1" style="stop-color:#4D8C3F"/>
	</linearGradient>
	<path class="st17" d="M265.6,595.4c0.4,2.5,0.7,4.9,0.7,7.4c-0.5-10.3-7.6-19.4-17.4-22.5c-9.9-3.2-21,0.3-27.4,8.5
		c-3.1,4-4.9,8.9-5.2,13.9c0,0.3-0.1,0.7,0,1c0.1,0.5,0,0.4,0.6,0.4c0.6,0,1.3,0.1,1.9,0.1c1.3,0.1,2.6,0.4,3.9,0.7
		c2.4,0.6,4.7,1.6,6.8,2.9c8.8,5.5,13.4,16.1,11.3,26.2c-2,10-10.3,18-20.4,19.7c-1.3,0.2-2.7,0.3-4.1,0.3c11.4,0,22.5-4,31.4-11.1
		c8.6-6.9,14.8-16.7,17.3-27.4C266.5,608.9,266.7,602.1,265.6,595.4z"/>
	<linearGradient id="SVGID_10_" gradientUnits="userSpaceOnUse" x1="191.3549" y1="579.1267" x2="266.2945" y2="579.1267">
		<stop  offset="0" style="stop-color:#F9C18F"/>
		<stop  offset="0.1603" style="stop-color:#F8BF8A"/>
		<stop  offset="0.3571" style="stop-color:#F4B97B"/>
		<stop  offset="0.573" style="stop-color:#EEAE62"/>
		<stop  offset="0.801" style="stop-color:#E5A03F"/>
		<stop  offset="1" style="stop-color:#DC911B"/>
	</linearGradient>
	<path class="st18" d="M263.8,588.3c-5.4-16.2-19.2-29-35.9-32.9c-7.5-1.8-15.7-2.2-22.8,1.3c-5.9,3-10.4,8.2-12.5,14.5
		c-4.4,13.1,3.2,27.8,16.4,31.8c1.6,0.5,3.2,0.8,4.8,1c0.4,0,2.2,0.4,2.5,0.1c0.1-0.1,0-1.2,0-1.4c0-0.5,0.1-0.9,0.1-1.4
		c0.4-3.3,1.4-6.5,3-9.4c3.2-5.7,8.6-10,14.8-11.8c13.4-3.9,27.8,4.3,31.3,17.8c0.4,1.6,0.7,3.3,0.7,4.9
		C266.2,597.9,265.3,593,263.8,588.3z"/>
	<linearGradient id="SVGID_11_" gradientUnits="userSpaceOnUse" x1="241.3043" y1="629.0774" x2="166.3596" y2="629.0774">
		<stop  offset="0" style="stop-color:#5A81CE"/>
		<stop  offset="0.3876" style="stop-color:#567EC9"/>
		<stop  offset="0.8626" style="stop-color:#4A74BA"/>
		<stop  offset="1" style="stop-color:#4570B4"/>
	</linearGradient>
	<path class="st19" d="M216.3,604.1c0,10.2-6.4,19.6-15.9,23.3c-9.7,3.8-21,1-27.8-6.8c-3.7-4.2-5.9-9.6-6.2-15.2
		c0.3,11.8,4.9,23.3,12.8,32.1c7.6,8.4,18,14.1,29.2,15.9c5.3,0.9,10.8,1.1,16-0.7c4.2-1.4,8.1-4,11-7.4c6-7,7.6-16.9,4.3-25.4
		c-3.3-8.3-11-14.4-19.8-15.6C218.6,604.2,217.5,604.1,216.3,604.1z"/>
	<linearGradient id="SVGID_12_" gradientUnits="userSpaceOnUse" x1="191.3232" y1="629.0613" x2="191.3232" y2="554.1086">
		<stop  offset="0" style="stop-color:#DC648D"/>
		<stop  offset="0.2256" style="stop-color:#DA5F8B"/>
		<stop  offset="0.5026" style="stop-color:#D55084"/>
		<stop  offset="0.8052" style="stop-color:#CD3779"/>
		<stop  offset="1" style="stop-color:#C62370"/>
	</linearGradient>
	<path class="st20" d="M191.3,579.1c0-10.2,6.4-19.5,15.8-23.3c2.5-1,5.2-1.6,7.9-1.7c-15.2,0.4-29.6,7.9-38.8,20.1
		c-4.4,5.8-7.4,12.6-8.9,19.8c-1.4,6.7-1.7,13.8,1.1,20.2c4.8,10.9,16.9,17,28.5,14.3c5.5-1.3,10.6-4.5,14.1-8.9
		c1.7-2.2,3.1-4.7,4-7.4c0.5-1.4,0.8-2.8,1-4.2c0.1-0.7,0.2-1.5,0.2-2.2c0-0.4,0-0.7,0-1.1c0-0.6,0-0.6-0.6-0.6
		c-11.7-0.3-22-9-24.1-20.6C191.5,582,191.3,580.6,191.3,579.1z"/>
</g>
<circle class="st21" cx="216.3" cy="579.1" r="3"/>
<circle class="st21" cx="241.3" cy="607.1" r="3"/>
<circle class="st21" cx="216.3" cy="629.1" r="3"/>
<circle class="st21" cx="191.4" cy="604.1" r="3"/>
<path class="st0" d="M264.3,798.3h-96c-6.6,0-12-5.4-12-12v-96c0-6.6,5.4-12,12-12h96c6.6,0,12,5.4,12,12v96
	C276.3,792.9,270.9,798.3,264.3,798.3z"/>
<g>
	<linearGradient id="SVGID_13_" gradientUnits="userSpaceOnUse" x1="241.3159" y1="788.2905" x2="241.3159" y2="713.3109">
		<stop  offset="0" style="stop-color:#82B678"/>
		<stop  offset="0.2438" style="stop-color:#7DB273"/>
		<stop  offset="0.5431" style="stop-color:#6FA764"/>
		<stop  offset="0.8702" style="stop-color:#58954B"/>
		<stop  offset="1" style="stop-color:#4D8C3F"/>
	</linearGradient>
	<path class="st22" d="M265.6,729.6c0.4,2.5,0.7,4.9,0.7,7.4c-0.5-10.3-7.6-19.4-17.4-22.5c-9.9-3.2-21,0.3-27.4,8.5
		c-3.1,4-4.9,8.9-5.2,13.9c0,0.3-0.1,0.7,0,1c0.1,0.5,0,0.4,0.6,0.4c0.6,0,1.3,0.1,1.9,0.1c1.3,0.1,2.6,0.4,3.9,0.7
		c2.4,0.6,4.7,1.6,6.8,2.9c8.8,5.5,13.4,16.1,11.3,26.2c-2,10-10.3,18-20.4,19.7c-1.3,0.2-2.7,0.3-4.1,0.3c11.4,0,22.5-4,31.4-11.1
		c8.6-6.9,14.8-16.7,17.3-27.4C266.5,743.2,266.7,736.3,265.6,729.6z"/>
	<linearGradient id="SVGID_14_" gradientUnits="userSpaceOnUse" x1="266.2945" y1="713.3412" x2="191.3549" y2="713.3412">
		<stop  offset="0" style="stop-color:#F9C18F"/>
		<stop  offset="0.1603" style="stop-color:#F8BF8A"/>
		<stop  offset="0.3571" style="stop-color:#F4B97B"/>
		<stop  offset="0.573" style="stop-color:#EEAE62"/>
		<stop  offset="0.801" style="stop-color:#E5A03F"/>
		<stop  offset="1" style="stop-color:#DC911B"/>
	</linearGradient>
	<path class="st23" d="M263.8,722.5c-5.4-16.2-19.2-29-35.9-32.9c-7.5-1.8-15.7-2.2-22.8,1.3c-5.9,3-10.4,8.2-12.5,14.5
		c-4.4,13.1,3.2,27.8,16.4,31.8c1.6,0.5,3.2,0.8,4.8,1c0.4,0,2.2,0.4,2.5,0.1c0.1-0.1,0-1.2,0-1.4c0-0.5,0.1-0.9,0.1-1.4
		c0.4-3.3,1.4-6.5,3-9.4c3.2-5.7,8.6-10,14.8-11.8c13.4-3.9,27.8,4.3,31.3,17.8c0.4,1.6,0.7,3.3,0.7,4.9
		C266.2,732.1,265.3,727.2,263.8,722.5z"/>
	<linearGradient id="SVGID_15_" gradientUnits="userSpaceOnUse" x1="166.3596" y1="763.2918" x2="241.3043" y2="763.2918">
		<stop  offset="0" style="stop-color:#5A81CE"/>
		<stop  offset="0.3876" style="stop-color:#567EC9"/>
		<stop  offset="0.8626" style="stop-color:#4A74BA"/>
		<stop  offset="1" style="stop-color:#4570B4"/>
	</linearGradient>
	<path class="st24" d="M216.3,738.3c0,10.2-6.4,19.6-15.9,23.3c-9.7,3.8-21,1-27.8-6.8c-3.7-4.2-5.9-9.6-6.2-15.2
		c0.3,11.8,4.9,23.3,12.8,32.1c7.6,8.4,18,14.1,29.2,15.9c5.3,0.9,10.8,1.1,16-0.7c4.2-1.4,8.1-4,11-7.4c6-7,7.6-16.9,4.3-25.4
		c-3.3-8.3-11-14.4-19.8-15.6C218.6,738.4,217.5,738.3,216.3,738.3z"/>
	<linearGradient id="SVGID_16_" gradientUnits="userSpaceOnUse" x1="191.3232" y1="688.323" x2="191.3232" y2="763.2758">
		<stop  offset="0" style="stop-color:#DC648D"/>
		<stop  offset="0.2256" style="stop-color:#DA5F8B"/>
		<stop  offset="0.5026" style="stop-color:#D55084"/>
		<stop  offset="0.8052" style="stop-color:#CD3779"/>
		<stop  offset="1" style="stop-color:#C62370"/>
	</linearGradient>
	<path class="st25" d="M191.3,713.3c0-10.2,6.4-19.5,15.8-23.3c2.5-1,5.2-1.6,7.9-1.7c-15.2,0.4-29.6,7.9-38.8,20.1
		c-4.4,5.8-7.4,12.6-8.9,19.8c-1.4,6.7-1.7,13.8,1.1,20.2c4.8,10.9,16.9,17,28.5,14.3c5.5-1.3,10.6-4.5,14.1-8.9
		c1.7-2.2,3.1-4.7,4-7.4c0.5-1.4,0.8-2.8,1-4.2c0.1-0.7,0.2-1.5,0.2-2.2c0-0.4,0-0.7,0-1.1c0-0.6,0-0.6-0.6-0.6
		c-11.7-0.3-22-9-24.1-20.6C191.5,716.2,191.3,714.8,191.3,713.3z"/>
</g>
<circle class="st21" cx="216.3" cy="713.3" r="3"/>
<circle class="st21" cx="241.3" cy="741.3" r="3"/>
<circle class="st21" cx="216.3" cy="763.3" r="3"/>
<circle class="st21" cx="191.4" cy="738.3" r="3"/>
<path class="st0" d="M264.3,932.5h-96c-6.6,0-12-5.4-12-12v-96c0-6.6,5.4-12,12-12h96c6.6,0,12,5.4,12,12v96
	C276.3,927.1,270.9,932.5,264.3,932.5z"/>
<g>
	<g>
		<g>
			<linearGradient id="SVGID_17_" gradientUnits="userSpaceOnUse" x1="241.3159" y1="922.5049" x2="241.3159" y2="847.5254">
				<stop  offset="0" style="stop-color:#82B678"/>
				<stop  offset="0.2438" style="stop-color:#7DB273"/>
				<stop  offset="0.5431" style="stop-color:#6FA764"/>
				<stop  offset="0.8702" style="stop-color:#58954B"/>
				<stop  offset="1" style="stop-color:#4D8C3F"/>
			</linearGradient>
			<path class="st26" d="M265.6,863.8c0.4,2.5,0.7,4.9,0.7,7.4c-0.5-10.3-7.6-19.4-17.4-22.5c-9.9-3.2-21,0.3-27.4,8.5
				c-3.1,4-4.9,8.9-5.2,13.9c0,0.3-0.1,0.7,0,1c0.1,0.5,0,0.4,0.6,0.4c0.6,0,1.3,0.1,1.9,0.1c1.3,0.1,2.6,0.4,3.9,0.7
				c2.4,0.6,4.7,1.6,6.8,2.9c8.8,5.5,13.4,16.1,11.3,26.2c-2,10-10.3,18-20.4,19.7c-1.3,0.2-2.7,0.3-4.1,0.3
				c11.4,0,22.5-4,31.4-11.1c8.6-6.9,14.8-16.7,17.3-27.4C266.5,877.4,266.7,870.5,265.6,863.8z"/>
			<linearGradient id="SVGID_18_" gradientUnits="userSpaceOnUse" x1="266.2945" y1="847.5556" x2="191.3549" y2="847.5556">
				<stop  offset="0" style="stop-color:#F9C18F"/>
				<stop  offset="0.1603" style="stop-color:#F8BF8A"/>
				<stop  offset="0.3571" style="stop-color:#F4B97B"/>
				<stop  offset="0.573" style="stop-color:#EEAE62"/>
				<stop  offset="0.801" style="stop-color:#E5A03F"/>
				<stop  offset="1" style="stop-color:#DC911B"/>
			</linearGradient>
			<path class="st27" d="M263.8,856.7c-5.4-16.2-19.2-29-35.9-32.9c-7.5-1.8-15.7-2.2-22.8,1.3c-5.9,3-10.4,8.2-12.5,14.5
				c-4.4,13.1,3.2,27.8,16.4,31.8c1.6,0.5,3.2,0.8,4.8,1c0.4,0,2.2,0.4,2.5,0.1c0.1-0.1,0-1.2,0-1.4c0-0.5,0.1-0.9,0.1-1.4
				c0.4-3.3,1.4-6.5,3-9.4c3.2-5.7,8.6-10,14.8-11.8c13.4-3.9,27.8,4.3,31.3,17.8c0.4,1.6,0.7,3.3,0.7,4.9
				C266.2,866.3,265.3,861.4,263.8,856.7z"/>
			<linearGradient id="SVGID_19_" gradientUnits="userSpaceOnUse" x1="166.3596" y1="897.5063" x2="241.3043" y2="897.5063">
				<stop  offset="0" style="stop-color:#5A81CE"/>
				<stop  offset="0.3876" style="stop-color:#567EC9"/>
				<stop  offset="0.8626" style="stop-color:#4A74BA"/>
				<stop  offset="1" style="stop-color:#4570B4"/>
			</linearGradient>
			<path class="st28" d="M216.3,872.5c0,10.2-6.4,19.6-15.9,23.3c-9.7,3.8-21,1-27.8-6.8c-3.7-4.2-5.9-9.6-6.2-15.2
				c0.3,11.8,4.9,23.3,12.8,32.1c7.6,8.4,18,14.1,29.2,15.9c5.3,0.9,10.8,1.1,16-0.7c4.2-1.4,8.1-4,11-7.4c6-7,7.6-16.9,4.3-25.4
				c-3.3-8.3-11-14.4-19.8-15.6C218.6,872.6,217.5,872.5,216.3,872.5z"/>
			<linearGradient id="SVGID_20_" gradientUnits="userSpaceOnUse" x1="191.3232" y1="822.5375" x2="191.3232" y2="897.4902">
				<stop  offset="0" style="stop-color:#DC648D"/>
				<stop  offset="0.2256" style="stop-color:#DA5F8B"/>
				<stop  offset="0.5026" style="stop-color:#D55084"/>
				<stop  offset="0.8052" style="stop-color:#CD3779"/>
				<stop  offset="1" style="stop-color:#C62370"/>
			</linearGradient>
			<path class="st29" d="M191.3,847.5c0-10.2,6.4-19.5,15.8-23.3c2.5-1,5.2-1.6,7.9-1.7c-15.2,0.4-29.6,7.9-38.8,20.1
				c-4.4,5.8-7.4,12.6-8.9,19.8c-1.4,6.7-1.7,13.8,1.1,20.2c4.8,10.9,16.9,17,28.5,14.3c5.5-1.3,10.6-4.5,14.1-8.9
				c1.7-2.2,3.1-4.7,4-7.4c0.5-1.4,0.8-2.8,1-4.2c0.1-0.7,0.2-1.5,0.2-2.2c0-0.4,0-0.7,0-1.1c0-0.6,0-0.6-0.6-0.6
				c-11.7-0.3-22-9-24.1-20.6C191.5,850.5,191.3,849,191.3,847.5z"/>
		</g>
	</g>
	<defs>
		<filter id="Adobe_OpacityMaskFilter" filterUnits="userSpaceOnUse" x="166.3" y="822.5" width="100" height="100">

				<feColorMatrix  type="matrix" values="-1 0 0 0 1  0 -1 0 0 1  0 0 -1 0 1  0 0 0 1 0" color-interpolation-filters="sRGB" result="source"/>
		</filter>
	</defs>
	<mask maskUnits="userSpaceOnUse" x="166.3" y="822.5" width="100" height="100" id="SVGID_21_">
		<g class="st30">

				<image style="overflow:visible;" width="434" height="435" xlink:href="E1E01E1C54DCC777.jpg"  transform="matrix(0.24 0 0 0.24 164.16 820.32)">
			</image>
		</g>
	</mask>
	<g class="st31">
		<g>
			<path class="st8" d="M265.6,863.8c0.4,2.5,0.7,4.9,0.7,7.4c-0.5-10.3-7.6-19.4-17.4-22.5c-9.9-3.2-21,0.3-27.4,8.5
				c-3.1,4-4.9,8.9-5.2,13.9c0,0.3-0.1,0.7,0,1c0.1,0.5,0,0.4,0.6,0.4c0.6,0,1.3,0.1,1.9,0.1c1.3,0.1,2.6,0.4,3.9,0.7
				c2.4,0.6,4.7,1.6,6.8,2.9c8.8,5.5,13.4,16.1,11.3,26.2c-2,10-10.3,18-20.4,19.7c-1.3,0.2-2.7,0.3-4.1,0.3
				c11.4,0,22.5-4,31.4-11.1c8.6-6.9,14.8-16.7,17.3-27.4C266.5,877.4,266.7,870.5,265.6,863.8z"/>
			<path class="st8" d="M263.8,856.7c-5.4-16.2-19.2-29-35.9-32.9c-7.5-1.8-15.7-2.2-22.8,1.3c-5.9,3-10.4,8.2-12.5,14.5
				c-4.4,13.1,3.2,27.8,16.4,31.8c1.6,0.5,3.2,0.8,4.8,1c0.4,0,2.2,0.4,2.5,0.1c0.1-0.1,0-1.2,0-1.4c0-0.5,0.1-0.9,0.1-1.4
				c0.4-3.3,1.4-6.5,3-9.4c3.2-5.7,8.6-10,14.8-11.8c13.4-3.9,27.8,4.3,31.3,17.8c0.4,1.6,0.7,3.3,0.7,4.9
				C266.2,866.3,265.3,861.4,263.8,856.7z"/>
			<path class="st8" d="M216.3,872.5c0,10.2-6.4,19.6-15.9,23.3c-9.7,3.8-21,1-27.8-6.8c-3.7-4.2-5.9-9.6-6.2-15.2
				c0.3,11.8,4.9,23.3,12.8,32.1c7.6,8.4,18,14.1,29.2,15.9c5.3,0.9,10.8,1.1,16-0.7c4.2-1.4,8.1-4,11-7.4c6-7,7.6-16.9,4.3-25.4
				c-3.3-8.3-11-14.4-19.8-15.6C218.6,872.6,217.5,872.5,216.3,872.5z"/>
			<path class="st8" d="M191.3,847.5c0-10.2,6.4-19.5,15.8-23.3c2.5-1,5.2-1.6,7.9-1.7c-15.2,0.4-29.6,7.9-38.8,20.1
				c-4.4,5.8-7.4,12.6-8.9,19.8c-1.4,6.7-1.7,13.8,1.1,20.2c4.8,10.9,16.9,17,28.5,14.3c5.5-1.3,10.6-4.5,14.1-8.9
				c1.7-2.2,3.1-4.7,4-7.4c0.5-1.4,0.8-2.8,1-4.2c0.1-0.7,0.2-1.5,0.2-2.2c0-0.4,0-0.7,0-1.1c0-0.6,0-0.6-0.6-0.6
				c-11.7-0.3-22-9-24.1-20.6C191.5,850.5,191.3,849,191.3,847.5z"/>
		</g>
	</g>
</g>
<circle class="st21" cx="216.3" cy="847.5" r="3"/>
<circle class="st21" cx="241.3" cy="875.5" r="3"/>
<circle class="st21" cx="216.3" cy="897.5" r="3"/>
<circle class="st21" cx="191.4" cy="872.5" r="3"/>
<path class="st0" d="M264.3,1200.9h-96c-6.6,0-12-5.4-12-12v-96c0-6.6,5.4-12,12-12h96c6.6,0,12,5.4,12,12v96
	C276.3,1195.5,270.9,1200.9,264.3,1200.9z"/>
<g>

		<image style="overflow:visible;opacity:0.7;" width="542" height="542" xlink:href="E1E01E1C54DCC775.png"  transform="matrix(0.24 0 0 0.24 153.24 1079.88)">
	</image>
	<g>
		<g>
			<g>
				<linearGradient id="SVGID_22_" gradientUnits="userSpaceOnUse" x1="241.3159" y1="1190.9338" x2="241.3159" y2="1115.9542">
					<stop  offset="0" style="stop-color:#82B678"/>
					<stop  offset="0.2438" style="stop-color:#7DB273"/>
					<stop  offset="0.5431" style="stop-color:#6FA764"/>
					<stop  offset="0.8702" style="stop-color:#58954B"/>
					<stop  offset="1" style="stop-color:#4D8C3F"/>
				</linearGradient>
				<path class="st32" d="M265.6,1132.2c0.4,2.5,0.7,4.9,0.7,7.4c-0.5-10.3-7.6-19.4-17.4-22.5c-9.9-3.2-21,0.3-27.4,8.5
					c-3.1,4-4.9,8.9-5.2,13.9c0,0.3-0.1,0.7,0,1c0.1,0.5,0,0.4,0.6,0.4c0.6,0,1.3,0.1,1.9,0.1c1.3,0.1,2.6,0.4,3.9,0.7
					c2.4,0.6,4.7,1.6,6.8,2.9c8.8,5.5,13.4,16.1,11.3,26.2c-2,10-10.3,18-20.4,19.7c-1.3,0.2-2.7,0.3-4.1,0.3
					c11.4,0,22.5-4,31.4-11.1c8.6-6.9,14.8-16.7,17.3-27.4C266.5,1145.8,266.7,1138.9,265.6,1132.2z"/>
				<linearGradient id="SVGID_23_" gradientUnits="userSpaceOnUse" x1="266.2945" y1="1115.9845" x2="191.3549" y2="1115.9845">
					<stop  offset="0" style="stop-color:#F9C18F"/>
					<stop  offset="0.1603" style="stop-color:#F8BF8A"/>
					<stop  offset="0.3571" style="stop-color:#F4B97B"/>
					<stop  offset="0.573" style="stop-color:#EEAE62"/>
					<stop  offset="0.801" style="stop-color:#E5A03F"/>
					<stop  offset="1" style="stop-color:#DC911B"/>
				</linearGradient>
				<path class="st33" d="M263.8,1125.1c-5.4-16.2-19.2-29-35.9-32.9c-7.5-1.8-15.7-2.2-22.8,1.3c-5.9,3-10.4,8.2-12.5,14.5
					c-4.4,13.1,3.2,27.8,16.4,31.8c1.6,0.5,3.2,0.8,4.8,1c0.4,0,2.2,0.4,2.5,0.1c0.1-0.1,0-1.2,0-1.4c0-0.5,0.1-0.9,0.1-1.4
					c0.4-3.3,1.4-6.5,3-9.4c3.2-5.7,8.6-10,14.8-11.8c13.4-3.9,27.8,4.3,31.3,17.8c0.4,1.6,0.7,3.3,0.7,4.9
					C266.2,1134.7,265.3,1129.8,263.8,1125.1z"/>
				<linearGradient id="SVGID_24_" gradientUnits="userSpaceOnUse" x1="166.3596" y1="1165.9352" x2="241.3043" y2="1165.9352">
					<stop  offset="0" style="stop-color:#5A81CE"/>
					<stop  offset="0.3876" style="stop-color:#567EC9"/>
					<stop  offset="0.8626" style="stop-color:#4A74BA"/>
					<stop  offset="1" style="stop-color:#4570B4"/>
				</linearGradient>
				<path class="st34" d="M216.3,1140.9c0,10.2-6.4,19.6-15.9,23.3c-9.7,3.8-21,1-27.8-6.8c-3.7-4.2-5.9-9.6-6.2-15.2
					c0.3,11.8,4.9,23.3,12.8,32.1c7.6,8.4,18,14.1,29.2,15.9c5.3,0.9,10.8,1.1,16-0.7c4.2-1.4,8.1-4,11-7.4c6-7,7.6-16.9,4.3-25.4
					c-3.3-8.3-11-14.4-19.8-15.6C218.6,1141,217.5,1140.9,216.3,1140.9z"/>
				<linearGradient id="SVGID_25_" gradientUnits="userSpaceOnUse" x1="191.3232" y1="1090.9663" x2="191.3232" y2="1165.9192">
					<stop  offset="0" style="stop-color:#DC648D"/>
					<stop  offset="0.2256" style="stop-color:#DA5F8B"/>
					<stop  offset="0.5026" style="stop-color:#D55084"/>
					<stop  offset="0.8052" style="stop-color:#CD3779"/>
					<stop  offset="1" style="stop-color:#C62370"/>
				</linearGradient>
				<path class="st35" d="M191.3,1115.9c0-10.2,6.4-19.5,15.8-23.3c2.5-1,5.2-1.6,7.9-1.7c-15.2,0.4-29.6,7.9-38.8,20.1
					c-4.4,5.8-7.4,12.6-8.9,19.8c-1.4,6.7-1.7,13.8,1.1,20.2c4.8,10.9,16.9,17,28.5,14.3c5.5-1.3,10.6-4.5,14.1-8.9
					c1.7-2.2,3.1-4.7,4-7.4c0.5-1.4,0.8-2.8,1-4.2c0.1-0.7,0.2-1.5,0.2-2.2c0-0.4,0-0.7,0-1.1c0-0.6,0-0.6-0.6-0.6
					c-11.7-0.3-22-9-24.1-20.6C191.5,1118.9,191.3,1117.4,191.3,1115.9z"/>
			</g>
		</g>
		<defs>
			<filter id="Adobe_OpacityMaskFilter_1_" filterUnits="userSpaceOnUse" x="166.3" y="1090.9" width="100" height="100">

					<feColorMatrix  type="matrix" values="-1 0 0 0 1  0 -1 0 0 1  0 0 -1 0 1  0 0 0 1 0" color-interpolation-filters="sRGB" result="source"/>
			</filter>
		</defs>
		<mask maskUnits="userSpaceOnUse" x="166.3" y="1090.9" width="100" height="100" id="SVGID_26_">
			<g class="st36">

					<image style="overflow:visible;" width="434" height="434" xlink:href="E1E01E1C54DCC77B.jpg"  transform="matrix(0.24 0 0 0.24 164.16 1088.88)">
				</image>
			</g>
		</mask>
		<g class="st37">
			<g>
				<path class="st8" d="M265.6,1132.2c0.4,2.5,0.7,4.9,0.7,7.4c-0.5-10.3-7.6-19.4-17.4-22.5c-9.9-3.2-21,0.3-27.4,8.5
					c-3.1,4-4.9,8.9-5.2,13.9c0,0.3-0.1,0.7,0,1c0.1,0.5,0,0.4,0.6,0.4c0.6,0,1.3,0.1,1.9,0.1c1.3,0.1,2.6,0.4,3.9,0.7
					c2.4,0.6,4.7,1.6,6.8,2.9c8.8,5.5,13.4,16.1,11.3,26.2c-2,10-10.3,18-20.4,19.7c-1.3,0.2-2.7,0.3-4.1,0.3
					c11.4,0,22.5-4,31.4-11.1c8.6-6.9,14.8-16.7,17.3-27.4C266.5,1145.8,266.7,1138.9,265.6,1132.2z"/>
				<path class="st8" d="M263.8,1125.1c-5.4-16.2-19.2-29-35.9-32.9c-7.5-1.8-15.7-2.2-22.8,1.3c-5.9,3-10.4,8.2-12.5,14.5
					c-4.4,13.1,3.2,27.8,16.4,31.8c1.6,0.5,3.2,0.8,4.8,1c0.4,0,2.2,0.4,2.5,0.1c0.1-0.1,0-1.2,0-1.4c0-0.5,0.1-0.9,0.1-1.4
					c0.4-3.3,1.4-6.5,3-9.4c3.2-5.7,8.6-10,14.8-11.8c13.4-3.9,27.8,4.3,31.3,17.8c0.4,1.6,0.7,3.3,0.7,4.9
					C266.2,1134.7,265.3,1129.8,263.8,1125.1z"/>
				<path class="st8" d="M216.3,1140.9c0,10.2-6.4,19.6-15.9,23.3c-9.7,3.8-21,1-27.8-6.8c-3.7-4.2-5.9-9.6-6.2-15.2
					c0.3,11.8,4.9,23.3,12.8,32.1c7.6,8.4,18,14.1,29.2,15.9c5.3,0.9,10.8,1.1,16-0.7c4.2-1.4,8.1-4,11-7.4c6-7,7.6-16.9,4.3-25.4
					c-3.3-8.3-11-14.4-19.8-15.6C218.6,1141,217.5,1140.9,216.3,1140.9z"/>
				<path class="st8" d="M191.3,1115.9c0-10.2,6.4-19.5,15.8-23.3c2.5-1,5.2-1.6,7.9-1.7c-15.2,0.4-29.6,7.9-38.8,20.1
					c-4.4,5.8-7.4,12.6-8.9,19.8c-1.4,6.7-1.7,13.8,1.1,20.2c4.8,10.9,16.9,17,28.5,14.3c5.5-1.3,10.6-4.5,14.1-8.9
					c1.7-2.2,3.1-4.7,4-7.4c0.5-1.4,0.8-2.8,1-4.2c0.1-0.7,0.2-1.5,0.2-2.2c0-0.4,0-0.7,0-1.1c0-0.6,0-0.6-0.6-0.6
					c-11.7-0.3-22-9-24.1-20.6C191.5,1118.9,191.3,1117.4,191.3,1115.9z"/>
			</g>
		</g>
	</g>
</g>
<circle class="st21" cx="216.3" cy="1116" r="3"/>
<circle class="st21" cx="241.3" cy="1143.9" r="3"/>
<circle class="st21" cx="216.3" cy="1165.9" r="3"/>
<circle class="st21" cx="191.4" cy="1140.9" r="3"/>
<path class="st0" d="M264.3,1066.7h-96c-6.6,0-12-5.4-12-12v-96c0-6.6,5.4-12,12-12h96c6.6,0,12,5.4,12,12v96
	C276.3,1061.3,270.9,1066.7,264.3,1066.7z"/>
<g>

		<image style="overflow:visible;opacity:0.7;" width="542" height="542" xlink:href="E1E01E1C54DCC77D.png"  transform="matrix(0.24 0 0 0.24 153.24 945.72)">
	</image>
	<g>
		<g>
			<linearGradient id="SVGID_27_" gradientUnits="userSpaceOnUse" x1="241.3159" y1="1056.7194" x2="241.3159" y2="981.7398">
				<stop  offset="0" style="stop-color:#82B678"/>
				<stop  offset="0.2438" style="stop-color:#7DB273"/>
				<stop  offset="0.5431" style="stop-color:#6FA764"/>
				<stop  offset="0.8702" style="stop-color:#58954B"/>
				<stop  offset="1" style="stop-color:#4D8C3F"/>
			</linearGradient>
			<path class="st38" d="M265.6,998c0.4,2.5,0.7,4.9,0.7,7.4c-0.5-10.3-7.6-19.4-17.4-22.5c-9.9-3.2-21,0.3-27.4,8.5
				c-3.1,4-4.9,8.9-5.2,13.9c0,0.3-0.1,0.7,0,1c0.1,0.5,0,0.4,0.6,0.4c0.6,0,1.3,0.1,1.9,0.1c1.3,0.1,2.6,0.4,3.9,0.7
				c2.4,0.6,4.7,1.6,6.8,2.9c8.8,5.5,13.4,16.1,11.3,26.2c-2,10-10.3,18-20.4,19.7c-1.3,0.2-2.7,0.3-4.1,0.3
				c11.4,0,22.5-4,31.4-11.1c8.6-6.9,14.8-16.7,17.3-27.4C266.5,1011.6,266.7,1004.7,265.6,998z"/>
			<linearGradient id="SVGID_28_" gradientUnits="userSpaceOnUse" x1="266.2945" y1="981.7701" x2="191.3549" y2="981.7701">
				<stop  offset="0" style="stop-color:#F9C18F"/>
				<stop  offset="0.1603" style="stop-color:#F8BF8A"/>
				<stop  offset="0.3571" style="stop-color:#F4B97B"/>
				<stop  offset="0.573" style="stop-color:#EEAE62"/>
				<stop  offset="0.801" style="stop-color:#E5A03F"/>
				<stop  offset="1" style="stop-color:#DC911B"/>
			</linearGradient>
			<path class="st39" d="M263.8,990.9c-5.4-16.2-19.2-29-35.9-32.9c-7.5-1.8-15.7-2.2-22.8,1.3c-5.9,3-10.4,8.2-12.5,14.5
				c-4.4,13.1,3.2,27.8,16.4,31.8c1.6,0.5,3.2,0.8,4.8,1c0.4,0,2.2,0.4,2.5,0.1c0.1-0.1,0-1.2,0-1.4c0-0.5,0.1-0.9,0.1-1.4
				c0.4-3.3,1.4-6.5,3-9.4c3.2-5.7,8.6-10,14.8-11.8c13.4-3.9,27.8,4.3,31.3,17.8c0.4,1.6,0.7,3.3,0.7,4.9
				C266.2,1000.5,265.3,995.6,263.8,990.9z"/>
			<linearGradient id="SVGID_29_" gradientUnits="userSpaceOnUse" x1="166.3596" y1="1031.7207" x2="241.3043" y2="1031.7207">
				<stop  offset="0" style="stop-color:#5A81CE"/>
				<stop  offset="0.3876" style="stop-color:#567EC9"/>
				<stop  offset="0.8626" style="stop-color:#4A74BA"/>
				<stop  offset="1" style="stop-color:#4570B4"/>
			</linearGradient>
			<path class="st40" d="M216.3,1006.7c0,10.2-6.4,19.6-15.9,23.3c-9.7,3.8-21,1-27.8-6.8c-3.7-4.2-5.9-9.6-6.2-15.2
				c0.3,11.8,4.9,23.3,12.8,32.1c7.6,8.4,18,14.1,29.2,15.9c5.3,0.9,10.8,1.1,16-0.7c4.2-1.4,8.1-4,11-7.4c6-7,7.6-16.9,4.3-25.4
				c-3.3-8.3-11-14.4-19.8-15.6C218.6,1006.8,217.5,1006.7,216.3,1006.7z"/>
			<linearGradient id="SVGID_30_" gradientUnits="userSpaceOnUse" x1="191.3232" y1="956.7519" x2="191.3232" y2="1031.7047">
				<stop  offset="0" style="stop-color:#DC648D"/>
				<stop  offset="0.2256" style="stop-color:#DA5F8B"/>
				<stop  offset="0.5026" style="stop-color:#D55084"/>
				<stop  offset="0.8052" style="stop-color:#CD3779"/>
				<stop  offset="1" style="stop-color:#C62370"/>
			</linearGradient>
			<path class="st41" d="M191.3,981.7c0-10.2,6.4-19.5,15.8-23.3c2.5-1,5.2-1.6,7.9-1.7c-15.2,0.4-29.6,7.9-38.8,20.1
				c-4.4,5.8-7.4,12.6-8.9,19.8c-1.4,6.7-1.7,13.8,1.1,20.2c4.8,10.9,16.9,17,28.5,14.3c5.5-1.3,10.6-4.5,14.1-8.9
				c1.7-2.2,3.1-4.7,4-7.4c0.5-1.4,0.8-2.8,1-4.2c0.1-0.7,0.2-1.5,0.2-2.2c0-0.4,0-0.7,0-1.1c0-0.6,0-0.6-0.6-0.6
				c-11.7-0.3-22-9-24.1-20.6C191.5,984.7,191.3,983.2,191.3,981.7z"/>
		</g>
	</g>
</g>
<circle class="st21" cx="216.3" cy="981.7" r="3"/>
<circle class="st21" cx="241.3" cy="1009.7" r="3"/>
<circle class="st21" cx="216.3" cy="1031.7" r="3"/>
<circle class="st21" cx="191.4" cy="1006.7" r="3"/>
<circle class="st21" cx="216.3" cy="1165.9" r="3"/>
<path class="st0" d="M396.3,664.1h-96c-6.6,0-12-5.4-12-12v-96c0-6.6,5.4-12,12-12h96c6.6,0,12,5.4,12,12v96
	C408.3,658.7,402.9,664.1,396.3,664.1z"/>
<g>
	<linearGradient id="SVGID_31_" gradientUnits="userSpaceOnUse" x1="373.2263" y1="579.0965" x2="373.2263" y2="654.076">
		<stop  offset="0" style="stop-color:#82B678"/>
		<stop  offset="0.2438" style="stop-color:#7DB273"/>
		<stop  offset="0.5431" style="stop-color:#6FA764"/>
		<stop  offset="0.8702" style="stop-color:#58954B"/>
		<stop  offset="1" style="stop-color:#4D8C3F"/>
	</linearGradient>
	<path class="st42" d="M397.5,595.4c0.4,2.5,0.7,4.9,0.7,7.4c-0.5-10.3-7.6-19.4-17.4-22.5c-9.9-3.2-21,0.3-27.4,8.5
		c-3.1,4-4.9,8.9-5.2,13.9c0,0.3-0.1,0.7,0,1c0.1,0.5,0,0.4,0.6,0.4c0.6,0,1.3,0.1,1.9,0.1c1.3,0.1,2.6,0.4,3.9,0.7
		c2.4,0.6,4.7,1.6,6.8,2.9c8.8,5.5,13.4,16.1,11.3,26.2c-2,10-10.3,18-20.4,19.7c-1.3,0.2-2.7,0.3-4.1,0.3c11.4,0,22.5-4,31.4-11.1
		c8.6-6.9,14.8-16.7,17.3-27.4C398.4,608.9,398.7,602.1,397.5,595.4z"/>
	<linearGradient id="SVGID_32_" gradientUnits="userSpaceOnUse" x1="323.2653" y1="579.1267" x2="398.2049" y2="579.1267">
		<stop  offset="0" style="stop-color:#F9C18F"/>
		<stop  offset="0.1603" style="stop-color:#F8BF8A"/>
		<stop  offset="0.3571" style="stop-color:#F4B97B"/>
		<stop  offset="0.573" style="stop-color:#EEAE62"/>
		<stop  offset="0.801" style="stop-color:#E5A03F"/>
		<stop  offset="1" style="stop-color:#DC911B"/>
	</linearGradient>
	<path class="st43" d="M395.7,588.3c-5.4-16.2-19.2-29-35.9-32.9c-7.5-1.8-15.7-2.2-22.8,1.3c-5.9,3-10.4,8.2-12.5,14.5
		c-4.4,13.1,3.2,27.8,16.4,31.8c1.6,0.5,3.2,0.8,4.8,1c0.4,0,2.2,0.4,2.5,0.1c0.1-0.1,0-1.2,0-1.4c0-0.5,0.1-0.9,0.1-1.4
		c0.4-3.3,1.4-6.5,3-9.4c3.2-5.7,8.6-10,14.8-11.8c13.4-3.9,27.8,4.3,31.3,17.8c0.4,1.6,0.7,3.3,0.7,4.9
		C398.1,597.9,397.2,593,395.7,588.3z"/>
	<linearGradient id="SVGID_33_" gradientUnits="userSpaceOnUse" x1="373.2147" y1="629.0774" x2="298.27" y2="629.0774">
		<stop  offset="0" style="stop-color:#5A81CE"/>
		<stop  offset="0.3876" style="stop-color:#567EC9"/>
		<stop  offset="0.8626" style="stop-color:#4A74BA"/>
		<stop  offset="1" style="stop-color:#4570B4"/>
	</linearGradient>
	<path class="st44" d="M348.2,604.1c0,10.2-6.4,19.6-15.9,23.3c-9.7,3.8-21,1-27.8-6.8c-3.7-4.2-5.9-9.6-6.2-15.2
		c0.3,11.8,4.9,23.3,12.8,32.1c7.6,8.4,18,14.1,29.2,15.9c5.3,0.9,10.8,1.1,16-0.7c4.2-1.4,8.1-4,11-7.4c6-7,7.6-16.9,4.3-25.4
		c-3.3-8.3-11-14.4-19.8-15.6C350.6,604.2,349.4,604.1,348.2,604.1z"/>
	<linearGradient id="SVGID_34_" gradientUnits="userSpaceOnUse" x1="323.2336" y1="629.0613" x2="323.2336" y2="554.1086">
		<stop  offset="0" style="stop-color:#DC648D"/>
		<stop  offset="0.2256" style="stop-color:#DA5F8B"/>
		<stop  offset="0.5026" style="stop-color:#D55084"/>
		<stop  offset="0.8052" style="stop-color:#CD3779"/>
		<stop  offset="1" style="stop-color:#C62370"/>
	</linearGradient>
	<path class="st45" d="M323.2,579.1c0-10.2,6.4-19.5,15.8-23.3c2.5-1,5.2-1.6,7.9-1.7c-15.2,0.4-29.6,7.9-38.8,20.1
		c-4.4,5.8-7.4,12.6-8.9,19.8c-1.4,6.7-1.7,13.8,1.1,20.2c4.8,10.9,16.9,17,28.5,14.3c5.5-1.3,10.6-4.5,14.1-8.9
		c1.7-2.2,3.1-4.7,4-7.4c0.5-1.4,0.8-2.8,1-4.2c0.1-0.7,0.2-1.5,0.2-2.2c0-0.4,0-0.7,0-1.1c0-0.6,0-0.6-0.6-0.6
		c-11.7-0.3-22-9-24.1-20.6C323.4,582,323.2,580.6,323.2,579.1z"/>
</g>
<path class="st0" d="M396.3,798.3h-96c-6.6,0-12-5.4-12-12v-96c0-6.6,5.4-12,12-12h96c6.6,0,12,5.4,12,12v96
	C408.3,792.9,402.9,798.3,396.3,798.3z"/>
<g>
	<linearGradient id="SVGID_35_" gradientUnits="userSpaceOnUse" x1="373.2263" y1="788.2905" x2="373.2263" y2="713.3109">
		<stop  offset="0" style="stop-color:#82B678"/>
		<stop  offset="0.2438" style="stop-color:#7DB273"/>
		<stop  offset="0.5431" style="stop-color:#6FA764"/>
		<stop  offset="0.8702" style="stop-color:#58954B"/>
		<stop  offset="1" style="stop-color:#4D8C3F"/>
	</linearGradient>
	<path class="st46" d="M397.5,729.6c0.4,2.5,0.7,4.9,0.7,7.4c-0.5-10.3-7.6-19.4-17.4-22.5c-9.9-3.2-21,0.3-27.4,8.5
		c-3.1,4-4.9,8.9-5.2,13.9c0,0.3-0.1,0.7,0,1c0.1,0.5,0,0.4,0.6,0.4c0.6,0,1.3,0.1,1.9,0.1c1.3,0.1,2.6,0.4,3.9,0.7
		c2.4,0.6,4.7,1.6,6.8,2.9c8.8,5.5,13.4,16.1,11.3,26.2c-2,10-10.3,18-20.4,19.7c-1.3,0.2-2.7,0.3-4.1,0.3c11.4,0,22.5-4,31.4-11.1
		c8.6-6.9,14.8-16.7,17.3-27.4C398.4,743.2,398.7,736.3,397.5,729.6z"/>
	<linearGradient id="SVGID_36_" gradientUnits="userSpaceOnUse" x1="398.2049" y1="713.3412" x2="323.2653" y2="713.3412">
		<stop  offset="0" style="stop-color:#F9C18F"/>
		<stop  offset="0.1603" style="stop-color:#F8BF8A"/>
		<stop  offset="0.3571" style="stop-color:#F4B97B"/>
		<stop  offset="0.573" style="stop-color:#EEAE62"/>
		<stop  offset="0.801" style="stop-color:#E5A03F"/>
		<stop  offset="1" style="stop-color:#DC911B"/>
	</linearGradient>
	<path class="st47" d="M395.7,722.5c-5.4-16.2-19.2-29-35.9-32.9c-7.5-1.8-15.7-2.2-22.8,1.3c-5.9,3-10.4,8.2-12.5,14.5
		c-4.4,13.1,3.2,27.8,16.4,31.8c1.6,0.5,3.2,0.8,4.8,1c0.4,0,2.2,0.4,2.5,0.1c0.1-0.1,0-1.2,0-1.4c0-0.5,0.1-0.9,0.1-1.4
		c0.4-3.3,1.4-6.5,3-9.4c3.2-5.7,8.6-10,14.8-11.8c13.4-3.9,27.8,4.3,31.3,17.8c0.4,1.6,0.7,3.3,0.7,4.9
		C398.1,732.1,397.2,727.2,395.7,722.5z"/>
	<linearGradient id="SVGID_37_" gradientUnits="userSpaceOnUse" x1="298.27" y1="763.2918" x2="373.2147" y2="763.2918">
		<stop  offset="0" style="stop-color:#5A81CE"/>
		<stop  offset="0.3876" style="stop-color:#567EC9"/>
		<stop  offset="0.8626" style="stop-color:#4A74BA"/>
		<stop  offset="1" style="stop-color:#4570B4"/>
	</linearGradient>
	<path class="st48" d="M348.2,738.3c0,10.2-6.4,19.6-15.9,23.3c-9.7,3.8-21,1-27.8-6.8c-3.7-4.2-5.9-9.6-6.2-15.2
		c0.3,11.8,4.9,23.3,12.8,32.1c7.6,8.4,18,14.1,29.2,15.9c5.3,0.9,10.8,1.1,16-0.7c4.2-1.4,8.1-4,11-7.4c6-7,7.6-16.9,4.3-25.4
		c-3.3-8.3-11-14.4-19.8-15.6C350.6,738.4,349.4,738.3,348.2,738.3z"/>
	<linearGradient id="SVGID_38_" gradientUnits="userSpaceOnUse" x1="323.2336" y1="688.323" x2="323.2336" y2="763.2758">
		<stop  offset="0" style="stop-color:#DC648D"/>
		<stop  offset="0.2256" style="stop-color:#DA5F8B"/>
		<stop  offset="0.5026" style="stop-color:#D55084"/>
		<stop  offset="0.8052" style="stop-color:#CD3779"/>
		<stop  offset="1" style="stop-color:#C62370"/>
	</linearGradient>
	<path class="st49" d="M323.2,713.3c0-10.2,6.4-19.5,15.8-23.3c2.5-1,5.2-1.6,7.9-1.7c-15.2,0.4-29.6,7.9-38.8,20.1
		c-4.4,5.8-7.4,12.6-8.9,19.8c-1.4,6.7-1.7,13.8,1.1,20.2c4.8,10.9,16.9,17,28.5,14.3c5.5-1.3,10.6-4.5,14.1-8.9
		c1.7-2.2,3.1-4.7,4-7.4c0.5-1.4,0.8-2.8,1-4.2c0.1-0.7,0.2-1.5,0.2-2.2c0-0.4,0-0.7,0-1.1c0-0.6,0-0.6-0.6-0.6
		c-11.7-0.3-22-9-24.1-20.6C323.4,716.2,323.2,714.8,323.2,713.3z"/>
</g>
<path class="st0" d="M396.3,932.5h-96c-6.6,0-12-5.4-12-12v-96c0-6.6,5.4-12,12-12h96c6.6,0,12,5.4,12,12v96
	C408.3,927.1,402.9,932.5,396.3,932.5z"/>
<g>
	<g>
		<g>
			<linearGradient id="SVGID_39_" gradientUnits="userSpaceOnUse" x1="373.2263" y1="922.5049" x2="373.2263" y2="847.5254">
				<stop  offset="0" style="stop-color:#82B678"/>
				<stop  offset="0.2438" style="stop-color:#7DB273"/>
				<stop  offset="0.5431" style="stop-color:#6FA764"/>
				<stop  offset="0.8702" style="stop-color:#58954B"/>
				<stop  offset="1" style="stop-color:#4D8C3F"/>
			</linearGradient>
			<path class="st50" d="M397.5,863.8c0.4,2.5,0.7,4.9,0.7,7.4c-0.5-10.3-7.6-19.4-17.4-22.5c-9.9-3.2-21,0.3-27.4,8.5
				c-3.1,4-4.9,8.9-5.2,13.9c0,0.3-0.1,0.7,0,1c0.1,0.5,0,0.4,0.6,0.4c0.6,0,1.3,0.1,1.9,0.1c1.3,0.1,2.6,0.4,3.9,0.7
				c2.4,0.6,4.7,1.6,6.8,2.9c8.8,5.5,13.4,16.1,11.3,26.2c-2,10-10.3,18-20.4,19.7c-1.3,0.2-2.7,0.3-4.1,0.3
				c11.4,0,22.5-4,31.4-11.1c8.6-6.9,14.8-16.7,17.3-27.4C398.4,877.4,398.7,870.5,397.5,863.8z"/>
			<linearGradient id="SVGID_40_" gradientUnits="userSpaceOnUse" x1="398.2049" y1="847.5556" x2="323.2653" y2="847.5556">
				<stop  offset="0" style="stop-color:#F9C18F"/>
				<stop  offset="0.1603" style="stop-color:#F8BF8A"/>
				<stop  offset="0.3571" style="stop-color:#F4B97B"/>
				<stop  offset="0.573" style="stop-color:#EEAE62"/>
				<stop  offset="0.801" style="stop-color:#E5A03F"/>
				<stop  offset="1" style="stop-color:#DC911B"/>
			</linearGradient>
			<path class="st51" d="M395.7,856.7c-5.4-16.2-19.2-29-35.9-32.9c-7.5-1.8-15.7-2.2-22.8,1.3c-5.9,3-10.4,8.2-12.5,14.5
				c-4.4,13.1,3.2,27.8,16.4,31.8c1.6,0.5,3.2,0.8,4.8,1c0.4,0,2.2,0.4,2.5,0.1c0.1-0.1,0-1.2,0-1.4c0-0.5,0.1-0.9,0.1-1.4
				c0.4-3.3,1.4-6.5,3-9.4c3.2-5.7,8.6-10,14.8-11.8c13.4-3.9,27.8,4.3,31.3,17.8c0.4,1.6,0.7,3.3,0.7,4.9
				C398.1,866.3,397.2,861.4,395.7,856.7z"/>
			<linearGradient id="SVGID_41_" gradientUnits="userSpaceOnUse" x1="298.27" y1="897.5063" x2="373.2147" y2="897.5063">
				<stop  offset="0" style="stop-color:#5A81CE"/>
				<stop  offset="0.3876" style="stop-color:#567EC9"/>
				<stop  offset="0.8626" style="stop-color:#4A74BA"/>
				<stop  offset="1" style="stop-color:#4570B4"/>
			</linearGradient>
			<path class="st52" d="M348.2,872.5c0,10.2-6.4,19.6-15.9,23.3c-9.7,3.8-21,1-27.8-6.8c-3.7-4.2-5.9-9.6-6.2-15.2
				c0.3,11.8,4.9,23.3,12.8,32.1c7.6,8.4,18,14.1,29.2,15.9c5.3,0.9,10.8,1.1,16-0.7c4.2-1.4,8.1-4,11-7.4c6-7,7.6-16.9,4.3-25.4
				c-3.3-8.3-11-14.4-19.8-15.6C350.6,872.6,349.4,872.5,348.2,872.5z"/>
			<linearGradient id="SVGID_42_" gradientUnits="userSpaceOnUse" x1="323.2336" y1="822.5375" x2="323.2336" y2="897.4902">
				<stop  offset="0" style="stop-color:#DC648D"/>
				<stop  offset="0.2256" style="stop-color:#DA5F8B"/>
				<stop  offset="0.5026" style="stop-color:#D55084"/>
				<stop  offset="0.8052" style="stop-color:#CD3779"/>
				<stop  offset="1" style="stop-color:#C62370"/>
			</linearGradient>
			<path class="st53" d="M323.2,847.5c0-10.2,6.4-19.5,15.8-23.3c2.5-1,5.2-1.6,7.9-1.7c-15.2,0.4-29.6,7.9-38.8,20.1
				c-4.4,5.8-7.4,12.6-8.9,19.8c-1.4,6.7-1.7,13.8,1.1,20.2c4.8,10.9,16.9,17,28.5,14.3c5.5-1.3,10.6-4.5,14.1-8.9
				c1.7-2.2,3.1-4.7,4-7.4c0.5-1.4,0.8-2.8,1-4.2c0.1-0.7,0.2-1.5,0.2-2.2c0-0.4,0-0.7,0-1.1c0-0.6,0-0.6-0.6-0.6
				c-11.7-0.3-22-9-24.1-20.6C323.4,850.5,323.2,849,323.2,847.5z"/>
		</g>
	</g>
	<defs>
		<filter id="Adobe_OpacityMaskFilter_2_" filterUnits="userSpaceOnUse" x="298.2" y="822.5" width="100" height="100">

				<feColorMatrix  type="matrix" values="-1 0 0 0 1  0 -1 0 0 1  0 0 -1 0 1  0 0 0 1 0" color-interpolation-filters="sRGB" result="source"/>
		</filter>
	</defs>
	<mask maskUnits="userSpaceOnUse" x="298.2" y="822.5" width="100" height="100" id="SVGID_43_">
		<g class="st54">

				<image style="overflow:visible;" width="434" height="435" xlink:href="E1E01E1C54DCC77F.jpg"  transform="matrix(0.24 0 0 0.24 296.0704 820.32)">
			</image>
		</g>
	</mask>
	<g class="st55">
		<g>
			<path class="st8" d="M397.5,863.8c0.4,2.5,0.7,4.9,0.7,7.4c-0.5-10.3-7.6-19.4-17.4-22.5c-9.9-3.2-21,0.3-27.4,8.5
				c-3.1,4-4.9,8.9-5.2,13.9c0,0.3-0.1,0.7,0,1c0.1,0.5,0,0.4,0.6,0.4c0.6,0,1.3,0.1,1.9,0.1c1.3,0.1,2.6,0.4,3.9,0.7
				c2.4,0.6,4.7,1.6,6.8,2.9c8.8,5.5,13.4,16.1,11.3,26.2c-2,10-10.3,18-20.4,19.7c-1.3,0.2-2.7,0.3-4.1,0.3
				c11.4,0,22.5-4,31.4-11.1c8.6-6.9,14.8-16.7,17.3-27.4C398.4,877.4,398.7,870.5,397.5,863.8z"/>
			<path class="st8" d="M395.7,856.7c-5.4-16.2-19.2-29-35.9-32.9c-7.5-1.8-15.7-2.2-22.8,1.3c-5.9,3-10.4,8.2-12.5,14.5
				c-4.4,13.1,3.2,27.8,16.4,31.8c1.6,0.5,3.2,0.8,4.8,1c0.4,0,2.2,0.4,2.5,0.1c0.1-0.1,0-1.2,0-1.4c0-0.5,0.1-0.9,0.1-1.4
				c0.4-3.3,1.4-6.5,3-9.4c3.2-5.7,8.6-10,14.8-11.8c13.4-3.9,27.8,4.3,31.3,17.8c0.4,1.6,0.7,3.3,0.7,4.9
				C398.1,866.3,397.2,861.4,395.7,856.7z"/>
			<path class="st8" d="M348.2,872.5c0,10.2-6.4,19.6-15.9,23.3c-9.7,3.8-21,1-27.8-6.8c-3.7-4.2-5.9-9.6-6.2-15.2
				c0.3,11.8,4.9,23.3,12.8,32.1c7.6,8.4,18,14.1,29.2,15.9c5.3,0.9,10.8,1.1,16-0.7c4.2-1.4,8.1-4,11-7.4c6-7,7.6-16.9,4.3-25.4
				c-3.3-8.3-11-14.4-19.8-15.6C350.6,872.6,349.4,872.5,348.2,872.5z"/>
			<path class="st8" d="M323.2,847.5c0-10.2,6.4-19.5,15.8-23.3c2.5-1,5.2-1.6,7.9-1.7c-15.2,0.4-29.6,7.9-38.8,20.1
				c-4.4,5.8-7.4,12.6-8.9,19.8c-1.4,6.7-1.7,13.8,1.1,20.2c4.8,10.9,16.9,17,28.5,14.3c5.5-1.3,10.6-4.5,14.1-8.9
				c1.7-2.2,3.1-4.7,4-7.4c0.5-1.4,0.8-2.8,1-4.2c0.1-0.7,0.2-1.5,0.2-2.2c0-0.4,0-0.7,0-1.1c0-0.6,0-0.6-0.6-0.6
				c-11.7-0.3-22-9-24.1-20.6C323.4,850.5,323.2,849,323.2,847.5z"/>
		</g>
	</g>
</g>
<path class="st0" d="M396.3,1200.9h-96c-6.6,0-12-5.4-12-12v-96c0-6.6,5.4-12,12-12h96c6.6,0,12,5.4,12,12v96
	C408.3,1195.5,402.9,1200.9,396.3,1200.9z"/>
<g>

		<image style="overflow:visible;opacity:0.7;" width="542" height="542" xlink:href="E1E01E1C54DCC77C.png"  transform="matrix(0.24 0 0 0.24 285.1505 1079.88)">
	</image>
	<g>
		<g>
			<g>
				<linearGradient id="SVGID_44_" gradientUnits="userSpaceOnUse" x1="373.2263" y1="1190.9338" x2="373.2263" y2="1115.9542">
					<stop  offset="0" style="stop-color:#82B678"/>
					<stop  offset="0.2438" style="stop-color:#7DB273"/>
					<stop  offset="0.5431" style="stop-color:#6FA764"/>
					<stop  offset="0.8702" style="stop-color:#58954B"/>
					<stop  offset="1" style="stop-color:#4D8C3F"/>
				</linearGradient>
				<path class="st56" d="M397.5,1132.2c0.4,2.5,0.7,4.9,0.7,7.4c-0.5-10.3-7.6-19.4-17.4-22.5c-9.9-3.2-21,0.3-27.4,8.5
					c-3.1,4-4.9,8.9-5.2,13.9c0,0.3-0.1,0.7,0,1c0.1,0.5,0,0.4,0.6,0.4c0.6,0,1.3,0.1,1.9,0.1c1.3,0.1,2.6,0.4,3.9,0.7
					c2.4,0.6,4.7,1.6,6.8,2.9c8.8,5.5,13.4,16.1,11.3,26.2c-2,10-10.3,18-20.4,19.7c-1.3,0.2-2.7,0.3-4.1,0.3
					c11.4,0,22.5-4,31.4-11.1c8.6-6.9,14.8-16.7,17.3-27.4C398.4,1145.8,398.7,1138.9,397.5,1132.2z"/>
				<linearGradient id="SVGID_45_" gradientUnits="userSpaceOnUse" x1="398.2049" y1="1115.9845" x2="323.2653" y2="1115.9845">
					<stop  offset="0" style="stop-color:#F9C18F"/>
					<stop  offset="0.1603" style="stop-color:#F8BF8A"/>
					<stop  offset="0.3571" style="stop-color:#F4B97B"/>
					<stop  offset="0.573" style="stop-color:#EEAE62"/>
					<stop  offset="0.801" style="stop-color:#E5A03F"/>
					<stop  offset="1" style="stop-color:#DC911B"/>
				</linearGradient>
				<path class="st57" d="M395.7,1125.1c-5.4-16.2-19.2-29-35.9-32.9c-7.5-1.8-15.7-2.2-22.8,1.3c-5.9,3-10.4,8.2-12.5,14.5
					c-4.4,13.1,3.2,27.8,16.4,31.8c1.6,0.5,3.2,0.8,4.8,1c0.4,0,2.2,0.4,2.5,0.1c0.1-0.1,0-1.2,0-1.4c0-0.5,0.1-0.9,0.1-1.4
					c0.4-3.3,1.4-6.5,3-9.4c3.2-5.7,8.6-10,14.8-11.8c13.4-3.9,27.8,4.3,31.3,17.8c0.4,1.6,0.7,3.3,0.7,4.9
					C398.1,1134.7,397.2,1129.8,395.7,1125.1z"/>
				<linearGradient id="SVGID_46_" gradientUnits="userSpaceOnUse" x1="298.27" y1="1165.9352" x2="373.2147" y2="1165.9352">
					<stop  offset="0" style="stop-color:#5A81CE"/>
					<stop  offset="0.3876" style="stop-color:#567EC9"/>
					<stop  offset="0.8626" style="stop-color:#4A74BA"/>
					<stop  offset="1" style="stop-color:#4570B4"/>
				</linearGradient>
				<path class="st58" d="M348.2,1140.9c0,10.2-6.4,19.6-15.9,23.3c-9.7,3.8-21,1-27.8-6.8c-3.7-4.2-5.9-9.6-6.2-15.2
					c0.3,11.8,4.9,23.3,12.8,32.1c7.6,8.4,18,14.1,29.2,15.9c5.3,0.9,10.8,1.1,16-0.7c4.2-1.4,8.1-4,11-7.4c6-7,7.6-16.9,4.3-25.4
					c-3.3-8.3-11-14.4-19.8-15.6C350.6,1141,349.4,1140.9,348.2,1140.9z"/>
				<linearGradient id="SVGID_47_" gradientUnits="userSpaceOnUse" x1="323.2336" y1="1090.9663" x2="323.2336" y2="1165.9192">
					<stop  offset="0" style="stop-color:#DC648D"/>
					<stop  offset="0.2256" style="stop-color:#DA5F8B"/>
					<stop  offset="0.5026" style="stop-color:#D55084"/>
					<stop  offset="0.8052" style="stop-color:#CD3779"/>
					<stop  offset="1" style="stop-color:#C62370"/>
				</linearGradient>
				<path class="st59" d="M323.2,1115.9c0-10.2,6.4-19.5,15.8-23.3c2.5-1,5.2-1.6,7.9-1.7c-15.2,0.4-29.6,7.9-38.8,20.1
					c-4.4,5.8-7.4,12.6-8.9,19.8c-1.4,6.7-1.7,13.8,1.1,20.2c4.8,10.9,16.9,17,28.5,14.3c5.5-1.3,10.6-4.5,14.1-8.9
					c1.7-2.2,3.1-4.7,4-7.4c0.5-1.4,0.8-2.8,1-4.2c0.1-0.7,0.2-1.5,0.2-2.2c0-0.4,0-0.7,0-1.1c0-0.6,0-0.6-0.6-0.6
					c-11.7-0.3-22-9-24.1-20.6C323.4,1118.9,323.2,1117.4,323.2,1115.9z"/>
			</g>
		</g>
		<defs>
			<filter id="Adobe_OpacityMaskFilter_3_" filterUnits="userSpaceOnUse" x="298.2" y="1090.9" width="100" height="100">

					<feColorMatrix  type="matrix" values="-1 0 0 0 1  0 -1 0 0 1  0 0 -1 0 1  0 0 0 1 0" color-interpolation-filters="sRGB" result="source"/>
			</filter>
		</defs>
		<mask maskUnits="userSpaceOnUse" x="298.2" y="1090.9" width="100" height="100" id="SVGID_48_">
			<g class="st60">

					<image style="overflow:visible;" width="434" height="434" xlink:href="E1E01E1C54DCC774.jpg"  transform="matrix(0.24 0 0 0.24 296.0704 1088.88)">
				</image>
			</g>
		</mask>
		<g class="st61">
			<g>
				<path class="st8" d="M397.5,1132.2c0.4,2.5,0.7,4.9,0.7,7.4c-0.5-10.3-7.6-19.4-17.4-22.5c-9.9-3.2-21,0.3-27.4,8.5
					c-3.1,4-4.9,8.9-5.2,13.9c0,0.3-0.1,0.7,0,1c0.1,0.5,0,0.4,0.6,0.4c0.6,0,1.3,0.1,1.9,0.1c1.3,0.1,2.6,0.4,3.9,0.7
					c2.4,0.6,4.7,1.6,6.8,2.9c8.8,5.5,13.4,16.1,11.3,26.2c-2,10-10.3,18-20.4,19.7c-1.3,0.2-2.7,0.3-4.1,0.3
					c11.4,0,22.5-4,31.4-11.1c8.6-6.9,14.8-16.7,17.3-27.4C398.4,1145.8,398.7,1138.9,397.5,1132.2z"/>
				<path class="st8" d="M395.7,1125.1c-5.4-16.2-19.2-29-35.9-32.9c-7.5-1.8-15.7-2.2-22.8,1.3c-5.9,3-10.4,8.2-12.5,14.5
					c-4.4,13.1,3.2,27.8,16.4,31.8c1.6,0.5,3.2,0.8,4.8,1c0.4,0,2.2,0.4,2.5,0.1c0.1-0.1,0-1.2,0-1.4c0-0.5,0.1-0.9,0.1-1.4
					c0.4-3.3,1.4-6.5,3-9.4c3.2-5.7,8.6-10,14.8-11.8c13.4-3.9,27.8,4.3,31.3,17.8c0.4,1.6,0.7,3.3,0.7,4.9
					C398.1,1134.7,397.2,1129.8,395.7,1125.1z"/>
				<path class="st8" d="M348.2,1140.9c0,10.2-6.4,19.6-15.9,23.3c-9.7,3.8-21,1-27.8-6.8c-3.7-4.2-5.9-9.6-6.2-15.2
					c0.3,11.8,4.9,23.3,12.8,32.1c7.6,8.4,18,14.1,29.2,15.9c5.3,0.9,10.8,1.1,16-0.7c4.2-1.4,8.1-4,11-7.4c6-7,7.6-16.9,4.3-25.4
					c-3.3-8.3-11-14.4-19.8-15.6C350.6,1141,349.4,1140.9,348.2,1140.9z"/>
				<path class="st8" d="M323.2,1115.9c0-10.2,6.4-19.5,15.8-23.3c2.5-1,5.2-1.6,7.9-1.7c-15.2,0.4-29.6,7.9-38.8,20.1
					c-4.4,5.8-7.4,12.6-8.9,19.8c-1.4,6.7-1.7,13.8,1.1,20.2c4.8,10.9,16.9,17,28.5,14.3c5.5-1.3,10.6-4.5,14.1-8.9
					c1.7-2.2,3.1-4.7,4-7.4c0.5-1.4,0.8-2.8,1-4.2c0.1-0.7,0.2-1.5,0.2-2.2c0-0.4,0-0.7,0-1.1c0-0.6,0-0.6-0.6-0.6
					c-11.7-0.3-22-9-24.1-20.6C323.4,1118.9,323.2,1117.4,323.2,1115.9z"/>
			</g>
		</g>
	</g>
</g>
<path class="st0" d="M396.3,1066.7h-96c-6.6,0-12-5.4-12-12v-96c0-6.6,5.4-12,12-12h96c6.6,0,12,5.4,12,12v96
	C408.3,1061.3,402.9,1066.7,396.3,1066.7z"/>
<g>

		<image style="overflow:visible;opacity:0.7;" width="542" height="542" xlink:href="E1E01E1C54DCC774.png"  transform="matrix(0.24 0 0 0.24 285.1505 945.72)">
	</image>
	<g>
		<g>
			<linearGradient id="SVGID_49_" gradientUnits="userSpaceOnUse" x1="373.2263" y1="1056.7194" x2="373.2263" y2="981.7398">
				<stop  offset="0" style="stop-color:#82B678"/>
				<stop  offset="0.2438" style="stop-color:#7DB273"/>
				<stop  offset="0.5431" style="stop-color:#6FA764"/>
				<stop  offset="0.8702" style="stop-color:#58954B"/>
				<stop  offset="1" style="stop-color:#4D8C3F"/>
			</linearGradient>
			<path class="st62" d="M397.5,998c0.4,2.5,0.7,4.9,0.7,7.4c-0.5-10.3-7.6-19.4-17.4-22.5c-9.9-3.2-21,0.3-27.4,8.5
				c-3.1,4-4.9,8.9-5.2,13.9c0,0.3-0.1,0.7,0,1c0.1,0.5,0,0.4,0.6,0.4c0.6,0,1.3,0.1,1.9,0.1c1.3,0.1,2.6,0.4,3.9,0.7
				c2.4,0.6,4.7,1.6,6.8,2.9c8.8,5.5,13.4,16.1,11.3,26.2c-2,10-10.3,18-20.4,19.7c-1.3,0.2-2.7,0.3-4.1,0.3
				c11.4,0,22.5-4,31.4-11.1c8.6-6.9,14.8-16.7,17.3-27.4C398.4,1011.6,398.7,1004.7,397.5,998z"/>
			<linearGradient id="SVGID_50_" gradientUnits="userSpaceOnUse" x1="398.2049" y1="981.7701" x2="323.2653" y2="981.7701">
				<stop  offset="0" style="stop-color:#F9C18F"/>
				<stop  offset="0.1603" style="stop-color:#F8BF8A"/>
				<stop  offset="0.3571" style="stop-color:#F4B97B"/>
				<stop  offset="0.573" style="stop-color:#EEAE62"/>
				<stop  offset="0.801" style="stop-color:#E5A03F"/>
				<stop  offset="1" style="stop-color:#DC911B"/>
			</linearGradient>
			<path class="st63" d="M395.7,990.9c-5.4-16.2-19.2-29-35.9-32.9c-7.5-1.8-15.7-2.2-22.8,1.3c-5.9,3-10.4,8.2-12.5,14.5
				c-4.4,13.1,3.2,27.8,16.4,31.8c1.6,0.5,3.2,0.8,4.8,1c0.4,0,2.2,0.4,2.5,0.1c0.1-0.1,0-1.2,0-1.4c0-0.5,0.1-0.9,0.1-1.4
				c0.4-3.3,1.4-6.5,3-9.4c3.2-5.7,8.6-10,14.8-11.8c13.4-3.9,27.8,4.3,31.3,17.8c0.4,1.6,0.7,3.3,0.7,4.9
				C398.1,1000.5,397.2,995.6,395.7,990.9z"/>
			<linearGradient id="SVGID_51_" gradientUnits="userSpaceOnUse" x1="298.27" y1="1031.7207" x2="373.2147" y2="1031.7207">
				<stop  offset="0" style="stop-color:#5A81CE"/>
				<stop  offset="0.3876" style="stop-color:#567EC9"/>
				<stop  offset="0.8626" style="stop-color:#4A74BA"/>
				<stop  offset="1" style="stop-color:#4570B4"/>
			</linearGradient>
			<path class="st64" d="M348.2,1006.7c0,10.2-6.4,19.6-15.9,23.3c-9.7,3.8-21,1-27.8-6.8c-3.7-4.2-5.9-9.6-6.2-15.2
				c0.3,11.8,4.9,23.3,12.8,32.1c7.6,8.4,18,14.1,29.2,15.9c5.3,0.9,10.8,1.1,16-0.7c4.2-1.4,8.1-4,11-7.4c6-7,7.6-16.9,4.3-25.4
				c-3.3-8.3-11-14.4-19.8-15.6C350.6,1006.8,349.4,1006.7,348.2,1006.7z"/>
			<linearGradient id="SVGID_52_" gradientUnits="userSpaceOnUse" x1="323.2336" y1="956.7519" x2="323.2336" y2="1031.7047">
				<stop  offset="0" style="stop-color:#DC648D"/>
				<stop  offset="0.2256" style="stop-color:#DA5F8B"/>
				<stop  offset="0.5026" style="stop-color:#D55084"/>
				<stop  offset="0.8052" style="stop-color:#CD3779"/>
				<stop  offset="1" style="stop-color:#C62370"/>
			</linearGradient>
			<path class="st65" d="M323.2,981.7c0-10.2,6.4-19.5,15.8-23.3c2.5-1,5.2-1.6,7.9-1.7c-15.2,0.4-29.6,7.9-38.8,20.1
				c-4.4,5.8-7.4,12.6-8.9,19.8c-1.4,6.7-1.7,13.8,1.1,20.2c4.8,10.9,16.9,17,28.5,14.3c5.5-1.3,10.6-4.5,14.1-8.9
				c1.7-2.2,3.1-4.7,4-7.4c0.5-1.4,0.8-2.8,1-4.2c0.1-0.7,0.2-1.5,0.2-2.2c0-0.4,0-0.7,0-1.1c0-0.6,0-0.6-0.6-0.6
				c-11.7-0.3-22-9-24.1-20.6C323.4,984.7,323.2,983.2,323.2,981.7z"/>
		</g>
	</g>
</g>
<path class="st0" d="M396.3,395.6h-96c-6.6,0-12-5.4-12-12v-96c0-6.6,5.4-12,12-12h96c6.6,0,12,5.4,12,12v96
	C408.3,390.2,402.9,395.6,396.3,395.6z"/>
<g>
	<linearGradient id="SVGID_53_" gradientUnits="userSpaceOnUse" x1="373.2263" y1="310.6676" x2="373.2263" y2="385.6471">
		<stop  offset="0" style="stop-color:#82B678"/>
		<stop  offset="0.2438" style="stop-color:#7DB273"/>
		<stop  offset="0.5431" style="stop-color:#6FA764"/>
		<stop  offset="0.8702" style="stop-color:#58954B"/>
		<stop  offset="1" style="stop-color:#4D8C3F"/>
	</linearGradient>
	<path class="st66" d="M397.5,326.9c0.4,2.5,0.7,4.9,0.7,7.4c-0.5-10.3-7.6-19.4-17.4-22.5c-9.9-3.2-21,0.3-27.4,8.5
		c-3.1,4-4.9,8.9-5.2,13.9c0,0.3-0.1,0.7,0,1c0.1,0.5,0,0.4,0.6,0.4c0.6,0,1.3,0.1,1.9,0.1c1.3,0.1,2.6,0.4,3.9,0.7
		c2.4,0.6,4.7,1.6,6.8,2.9c8.8,5.5,13.4,16.1,11.3,26.2c-2,10-10.3,18-20.4,19.7c-1.3,0.2-2.7,0.3-4.1,0.3c11.4,0,22.5-4,31.4-11.1
		c8.6-6.9,14.8-16.7,17.3-27.4C398.4,340.5,398.7,333.6,397.5,326.9z"/>
	<linearGradient id="SVGID_54_" gradientUnits="userSpaceOnUse" x1="323.2653" y1="310.6978" x2="398.2049" y2="310.6978">
		<stop  offset="0" style="stop-color:#F9C18F"/>
		<stop  offset="0.1603" style="stop-color:#F8BF8A"/>
		<stop  offset="0.3571" style="stop-color:#F4B97B"/>
		<stop  offset="0.573" style="stop-color:#EEAE62"/>
		<stop  offset="0.801" style="stop-color:#E5A03F"/>
		<stop  offset="1" style="stop-color:#DC911B"/>
	</linearGradient>
	<path class="st67" d="M395.7,319.9c-5.4-16.2-19.2-29-35.9-32.9c-7.5-1.8-15.7-2.2-22.8,1.3c-5.9,3-10.4,8.2-12.5,14.5
		c-4.4,13.1,3.2,27.8,16.4,31.8c1.6,0.5,3.2,0.8,4.8,1c0.4,0,2.2,0.4,2.5,0.1c0.1-0.1,0-1.2,0-1.4c0-0.5,0.1-0.9,0.1-1.4
		c0.4-3.3,1.4-6.5,3-9.4c3.2-5.7,8.6-10,14.8-11.8c13.4-3.9,27.8,4.3,31.3,17.8c0.4,1.6,0.7,3.3,0.7,4.9
		C398.1,329.4,397.2,324.5,395.7,319.9z"/>
	<linearGradient id="SVGID_55_" gradientUnits="userSpaceOnUse" x1="373.2147" y1="360.6485" x2="298.27" y2="360.6485">
		<stop  offset="0" style="stop-color:#5A81CE"/>
		<stop  offset="0.3876" style="stop-color:#567EC9"/>
		<stop  offset="0.8626" style="stop-color:#4A74BA"/>
		<stop  offset="1" style="stop-color:#4570B4"/>
	</linearGradient>
	<path class="st68" d="M348.2,335.6c0,10.2-6.4,19.6-15.9,23.3c-9.7,3.8-21,1-27.8-6.8c-3.7-4.2-5.9-9.6-6.2-15.2
		c0.3,11.8,4.9,23.3,12.8,32.1c7.6,8.4,18,14.1,29.2,15.9c5.3,0.9,10.8,1.1,16-0.7c4.2-1.4,8.1-4,11-7.4c6-7,7.6-16.9,4.3-25.4
		c-3.3-8.3-11-14.4-19.8-15.6C350.6,335.7,349.4,335.6,348.2,335.6z"/>
	<linearGradient id="SVGID_56_" gradientUnits="userSpaceOnUse" x1="323.2336" y1="360.6324" x2="323.2336" y2="285.6797">
		<stop  offset="0" style="stop-color:#DC648D"/>
		<stop  offset="0.2256" style="stop-color:#DA5F8B"/>
		<stop  offset="0.5026" style="stop-color:#D55084"/>
		<stop  offset="0.8052" style="stop-color:#CD3779"/>
		<stop  offset="1" style="stop-color:#C62370"/>
	</linearGradient>
	<path class="st69" d="M323.2,310.6c0-10.2,6.4-19.5,15.8-23.3c2.5-1,5.2-1.6,7.9-1.7c-15.2,0.4-29.6,7.9-38.8,20.1
		c-4.4,5.8-7.4,12.6-8.9,19.8c-1.4,6.7-1.7,13.8,1.1,20.2c4.8,10.9,16.9,17,28.5,14.3c5.5-1.3,10.6-4.5,14.1-8.9
		c1.7-2.2,3.1-4.7,4-7.4c0.5-1.4,0.8-2.8,1-4.2c0.1-0.7,0.2-1.5,0.2-2.2c0-0.4,0-0.7,0-1.1c0-0.6,0-0.6-0.6-0.6
		c-11.7-0.3-22-9-24.1-20.6C323.4,313.6,323.2,312.1,323.2,310.6z"/>
</g>
<path class="st0" d="M396.3,529.9h-96c-6.6,0-12-5.4-12-12v-96c0-6.6,5.4-12,12-12h96c6.6,0,12,5.4,12,12v96
	C408.3,524.5,402.9,529.9,396.3,529.9z"/>
<g>
	<linearGradient id="SVGID_57_" gradientUnits="userSpaceOnUse" x1="373.2263" y1="519.8616" x2="373.2263" y2="444.882">
		<stop  offset="0" style="stop-color:#82B678"/>
		<stop  offset="0.2438" style="stop-color:#7DB273"/>
		<stop  offset="0.5431" style="stop-color:#6FA764"/>
		<stop  offset="0.8702" style="stop-color:#58954B"/>
		<stop  offset="1" style="stop-color:#4D8C3F"/>
	</linearGradient>
	<path class="st70" d="M397.5,461.2c0.4,2.5,0.7,4.9,0.7,7.4c-0.5-10.3-7.6-19.4-17.4-22.5c-9.9-3.2-21,0.3-27.4,8.5
		c-3.1,4-4.9,8.9-5.2,13.9c0,0.3-0.1,0.7,0,1c0.1,0.5,0,0.4,0.6,0.4c0.6,0,1.3,0.1,1.9,0.1c1.3,0.1,2.6,0.4,3.9,0.7
		c2.4,0.6,4.7,1.6,6.8,2.9c8.8,5.5,13.4,16.1,11.3,26.2c-2,10-10.3,18-20.4,19.7c-1.3,0.2-2.7,0.3-4.1,0.3c11.4,0,22.5-4,31.4-11.1
		c8.6-6.9,14.8-16.7,17.3-27.4C398.4,474.7,398.7,467.9,397.5,461.2z"/>
	<linearGradient id="SVGID_58_" gradientUnits="userSpaceOnUse" x1="398.2049" y1="444.9123" x2="323.2653" y2="444.9123">
		<stop  offset="0" style="stop-color:#F9C18F"/>
		<stop  offset="0.1603" style="stop-color:#F8BF8A"/>
		<stop  offset="0.3571" style="stop-color:#F4B97B"/>
		<stop  offset="0.573" style="stop-color:#EEAE62"/>
		<stop  offset="0.801" style="stop-color:#E5A03F"/>
		<stop  offset="1" style="stop-color:#DC911B"/>
	</linearGradient>
	<path class="st71" d="M395.7,454.1c-5.4-16.2-19.2-29-35.9-32.9c-7.5-1.8-15.7-2.2-22.8,1.3c-5.9,3-10.4,8.2-12.5,14.5
		c-4.4,13.1,3.2,27.8,16.4,31.8c1.6,0.5,3.2,0.8,4.8,1c0.4,0,2.2,0.4,2.5,0.1c0.1-0.1,0-1.2,0-1.4c0-0.5,0.1-0.9,0.1-1.4
		c0.4-3.3,1.4-6.5,3-9.4c3.2-5.7,8.6-10,14.8-11.8c13.4-3.9,27.8,4.3,31.3,17.8c0.4,1.6,0.7,3.3,0.7,4.9
		C398.1,463.6,397.2,458.7,395.7,454.1z"/>
	<linearGradient id="SVGID_59_" gradientUnits="userSpaceOnUse" x1="298.27" y1="494.8629" x2="373.2147" y2="494.8629">
		<stop  offset="0" style="stop-color:#5A81CE"/>
		<stop  offset="0.3876" style="stop-color:#567EC9"/>
		<stop  offset="0.8626" style="stop-color:#4A74BA"/>
		<stop  offset="1" style="stop-color:#4570B4"/>
	</linearGradient>
	<path class="st72" d="M348.2,469.9c0,10.2-6.4,19.6-15.9,23.3c-9.7,3.8-21,1-27.8-6.8c-3.7-4.2-5.9-9.6-6.2-15.2
		c0.3,11.8,4.9,23.3,12.8,32.1c7.6,8.4,18,14.1,29.2,15.9c5.3,0.9,10.8,1.1,16-0.7c4.2-1.4,8.1-4,11-7.4c6-7,7.6-16.9,4.3-25.4
		c-3.3-8.3-11-14.4-19.8-15.6C350.6,469.9,349.4,469.9,348.2,469.9z"/>
	<linearGradient id="SVGID_60_" gradientUnits="userSpaceOnUse" x1="323.2336" y1="419.8941" x2="323.2336" y2="494.8469">
		<stop  offset="0" style="stop-color:#DC648D"/>
		<stop  offset="0.2256" style="stop-color:#DA5F8B"/>
		<stop  offset="0.5026" style="stop-color:#D55084"/>
		<stop  offset="0.8052" style="stop-color:#CD3779"/>
		<stop  offset="1" style="stop-color:#C62370"/>
	</linearGradient>
	<path class="st73" d="M323.2,444.9c0-10.2,6.4-19.5,15.8-23.3c2.5-1,5.2-1.6,7.9-1.7c-15.2,0.4-29.6,7.9-38.8,20.1
		c-4.4,5.8-7.4,12.6-8.9,19.8c-1.4,6.7-1.7,13.8,1.1,20.2c4.8,10.9,16.9,17,28.5,14.3c5.5-1.3,10.6-4.5,14.1-8.9
		c1.7-2.2,3.1-4.7,4-7.4c0.5-1.4,0.8-2.8,1-4.2c0.1-0.7,0.2-1.5,0.2-2.2c0-0.4,0-0.7,0-1.1c0-0.6,0-0.6-0.6-0.6
		c-11.7-0.3-22-9-24.1-20.6C323.4,447.8,323.2,446.3,323.2,444.9z"/>
</g>
<ellipse class="st7" cx="370.7" cy="82.3" rx="7.4" ry="23.5"/>
<ellipse class="st4" cx="395.1" cy="82.3" rx="7.4" ry="23.5"/>
<ellipse class="st6" cx="443.8" cy="82.3" rx="7.4" ry="23.5"/>
<ellipse class="st5" cx="419.4" cy="82.3" rx="7.4" ry="23.5"/>
<ellipse class="st74" cx="468.1" cy="82.3" rx="7.4" ry="23.5"/>
<path class="st75" d="M236.8,226.4c0-16.6-20.4-25-20.4-25v50C216.3,251.4,236.8,243.1,236.8,226.4z"/>
<rect x="192.4" y="712.3" class="st76" width="111" height="119.7"/>
<text transform="matrix(1 0 0 1 192.3545 756.8608)" class="st77 st78 st79">U</text>
<ellipse class="st7" cx="356.2" cy="159.3" rx="22.8" ry="23.5"/>
<ellipse class="st4" cx="430.8" cy="159.3" rx="22.8" ry="23.5"/>
<ellipse class="st6" cx="580" cy="159.3" rx="22.8" ry="23.5"/>
<ellipse class="st5" cx="505.4" cy="159.3" rx="22.8" ry="23.5"/>
<g>
	<g>
		<g>
			<linearGradient id="SVGID_61_" gradientUnits="userSpaceOnUse" x1="535.2263" y1="895.5049" x2="535.2263" y2="820.5254">
				<stop  offset="0" style="stop-color:#82B678"/>
				<stop  offset="0.2438" style="stop-color:#7DB273"/>
				<stop  offset="0.5431" style="stop-color:#6FA764"/>
				<stop  offset="0.8702" style="stop-color:#58954B"/>
				<stop  offset="1" style="stop-color:#4D8C3F"/>
			</linearGradient>
			<path class="st80" d="M559.5,836.8c0.4,2.5,0.7,4.9,0.7,7.4c-0.5-10.3-7.6-19.4-17.4-22.5c-9.9-3.2-21,0.3-27.4,8.5
				c-3.1,4-4.9,8.9-5.2,13.9c0,0.3-0.1,0.7,0,1c0.1,0.5,0,0.4,0.6,0.4c0.6,0,1.3,0.1,1.9,0.1c1.3,0.1,2.6,0.4,3.9,0.7
				c2.4,0.6,4.7,1.6,6.8,2.9c8.8,5.5,13.4,16.1,11.3,26.2c-2,10-10.3,18-20.4,19.7c-1.3,0.2-2.7,0.3-4.1,0.3
				c11.4,0,22.5-4,31.4-11.1c8.6-6.9,14.8-16.7,17.3-27.4C560.4,850.4,560.7,843.5,559.5,836.8z"/>
			<linearGradient id="SVGID_62_" gradientUnits="userSpaceOnUse" x1="560.205" y1="820.5556" x2="485.2653" y2="820.5556">
				<stop  offset="0" style="stop-color:#F9C18F"/>
				<stop  offset="0.1603" style="stop-color:#F8BF8A"/>
				<stop  offset="0.3571" style="stop-color:#F4B97B"/>
				<stop  offset="0.573" style="stop-color:#EEAE62"/>
				<stop  offset="0.801" style="stop-color:#E5A03F"/>
				<stop  offset="1" style="stop-color:#DC911B"/>
			</linearGradient>
			<path class="st81" d="M557.7,829.7c-5.4-16.2-19.2-29-35.9-32.9c-7.5-1.8-15.7-2.2-22.8,1.3c-5.9,3-10.4,8.2-12.5,14.5
				c-4.4,13.1,3.2,27.8,16.4,31.8c1.6,0.5,3.2,0.8,4.8,1c0.4,0,2.2,0.4,2.5,0.1c0.1-0.1,0-1.2,0-1.4c0-0.5,0.1-0.9,0.1-1.4
				c0.4-3.3,1.4-6.5,3-9.4c3.2-5.7,8.6-10,14.8-11.8c13.4-3.9,27.8,4.3,31.3,17.8c0.4,1.6,0.7,3.3,0.7,4.9
				C560.1,839.3,559.2,834.4,557.7,829.7z"/>
			<linearGradient id="SVGID_63_" gradientUnits="userSpaceOnUse" x1="460.27" y1="870.5063" x2="535.2147" y2="870.5063">
				<stop  offset="0" style="stop-color:#5A81CE"/>
				<stop  offset="0.3876" style="stop-color:#567EC9"/>
				<stop  offset="0.8626" style="stop-color:#4A74BA"/>
				<stop  offset="1" style="stop-color:#4570B4"/>
			</linearGradient>
			<path class="st82" d="M510.2,845.5c0,10.2-6.4,19.6-15.9,23.3c-9.7,3.8-21,1-27.8-6.8c-3.7-4.2-5.9-9.6-6.2-15.2
				c0.3,11.8,4.9,23.3,12.8,32.1c7.6,8.4,18,14.1,29.2,15.9c5.3,0.9,10.8,1.1,16-0.7c4.2-1.4,8.1-4,11-7.4c6-7,7.6-16.9,4.3-25.4
				c-3.3-8.3-11-14.4-19.8-15.6C512.6,845.6,511.4,845.5,510.2,845.5z"/>
			<linearGradient id="SVGID_64_" gradientUnits="userSpaceOnUse" x1="485.2336" y1="795.5375" x2="485.2336" y2="870.4902">
				<stop  offset="0" style="stop-color:#DC648D"/>
				<stop  offset="0.2256" style="stop-color:#DA5F8B"/>
				<stop  offset="0.5026" style="stop-color:#D55084"/>
				<stop  offset="0.8052" style="stop-color:#CD3779"/>
				<stop  offset="1" style="stop-color:#C62370"/>
			</linearGradient>
			<path class="st83" d="M485.2,820.5c0-10.2,6.4-19.5,15.8-23.3c2.5-1,5.2-1.6,7.9-1.7c-15.2,0.4-29.6,7.9-38.8,20.1
				c-4.4,5.8-7.4,12.6-8.9,19.8c-1.4,6.7-1.7,13.8,1.1,20.2c4.8,10.9,16.9,17,28.5,14.3c5.5-1.3,10.6-4.5,14.1-8.9
				c1.7-2.2,3.1-4.7,4-7.4c0.5-1.4,0.8-2.8,1-4.2c0.1-0.7,0.2-1.5,0.2-2.2c0-0.4,0-0.7,0-1.1c0-0.6,0-0.6-0.6-0.6
				c-11.7-0.3-22-9-24.1-20.6C485.4,823.5,485.2,822,485.2,820.5z"/>
		</g>
	</g>
	<defs>
		<filter id="Adobe_OpacityMaskFilter_4_" filterUnits="userSpaceOnUse" x="460.2" y="795.5" width="100" height="100">

				<feColorMatrix  type="matrix" values="-1 0 0 0 1  0 -1 0 0 1  0 0 -1 0 1  0 0 0 1 0" color-interpolation-filters="sRGB" result="source"/>
		</filter>
	</defs>
	<mask maskUnits="userSpaceOnUse" x="460.2" y="795.5" width="100" height="100" id="SVGID_65_">
		<g class="st84">

				<image style="overflow:visible;" width="434" height="434" xlink:href="E1E01E1C54DCC775.jpg"  transform="matrix(0.24 0 0 0.24 458.16 793.44)">
			</image>
		</g>
	</mask>
	<g class="st85">
		<g>
			<path class="st8" d="M559.5,836.8c0.4,2.5,0.7,4.9,0.7,7.4c-0.5-10.3-7.6-19.4-17.4-22.5c-9.9-3.2-21,0.3-27.4,8.5
				c-3.1,4-4.9,8.9-5.2,13.9c0,0.3-0.1,0.7,0,1c0.1,0.5,0,0.4,0.6,0.4c0.6,0,1.3,0.1,1.9,0.1c1.3,0.1,2.6,0.4,3.9,0.7
				c2.4,0.6,4.7,1.6,6.8,2.9c8.8,5.5,13.4,16.1,11.3,26.2c-2,10-10.3,18-20.4,19.7c-1.3,0.2-2.7,0.3-4.1,0.3
				c11.4,0,22.5-4,31.4-11.1c8.6-6.9,14.8-16.7,17.3-27.4C560.4,850.4,560.7,843.5,559.5,836.8z"/>
			<path class="st8" d="M557.7,829.7c-5.4-16.2-19.2-29-35.9-32.9c-7.5-1.8-15.7-2.2-22.8,1.3c-5.9,3-10.4,8.2-12.5,14.5
				c-4.4,13.1,3.2,27.8,16.4,31.8c1.6,0.5,3.2,0.8,4.8,1c0.4,0,2.2,0.4,2.5,0.1c0.1-0.1,0-1.2,0-1.4c0-0.5,0.1-0.9,0.1-1.4
				c0.4-3.3,1.4-6.5,3-9.4c3.2-5.7,8.6-10,14.8-11.8c13.4-3.9,27.8,4.3,31.3,17.8c0.4,1.6,0.7,3.3,0.7,4.9
				C560.1,839.3,559.2,834.4,557.7,829.7z"/>
			<path class="st8" d="M510.2,845.5c0,10.2-6.4,19.6-15.9,23.3c-9.7,3.8-21,1-27.8-6.8c-3.7-4.2-5.9-9.6-6.2-15.2
				c0.3,11.8,4.9,23.3,12.8,32.1c7.6,8.4,18,14.1,29.2,15.9c5.3,0.9,10.8,1.1,16-0.7c4.2-1.4,8.1-4,11-7.4c6-7,7.6-16.9,4.3-25.4
				c-3.3-8.3-11-14.4-19.8-15.6C512.6,845.6,511.4,845.5,510.2,845.5z"/>
			<path class="st8" d="M485.2,820.5c0-10.2,6.4-19.5,15.8-23.3c2.5-1,5.2-1.6,7.9-1.7c-15.2,0.4-29.6,7.9-38.8,20.1
				c-4.4,5.8-7.4,12.6-8.9,19.8c-1.4,6.7-1.7,13.8,1.1,20.2c4.8,10.9,16.9,17,28.5,14.3c5.5-1.3,10.6-4.5,14.1-8.9
				c1.7-2.2,3.1-4.7,4-7.4c0.5-1.4,0.8-2.8,1-4.2c0.1-0.7,0.2-1.5,0.2-2.2c0-0.4,0-0.7,0-1.1c0-0.6,0-0.6-0.6-0.6
				c-11.7-0.3-22-9-24.1-20.6C485.4,823.5,485.2,822,485.2,820.5z"/>
		</g>
	</g>
</g>
</svg>
